<svg width="224" height="49" viewBox="0 0 224 49" fill="none" xmlns="http://www.w3.org/2000/svg">
<path d="M51.652 35.108V33.308H59.428C61.372 33.308 63.052 32.996 64.468 32.372C65.908 31.748 67.096 30.896 68.032 29.816C68.968 28.736 69.664 27.512 70.12 26.144C70.6 24.752 70.84 23.312 70.84 21.824C70.84 20.264 70.6 18.8 70.12 17.432C69.664 16.064 68.956 14.852 67.996 13.796C67.036 12.74 65.848 11.912 64.432 11.312C63.016 10.712 61.348 10.412 59.428 10.412H51.652V8.612H59.212C61.54 8.612 63.556 8.984 65.26 9.728C66.964 10.448 68.368 11.42 69.472 12.644C70.6 13.868 71.44 15.248 71.992 16.784C72.544 18.32 72.82 19.904 72.82 21.536V22.112C72.82 23.672 72.556 25.232 72.028 26.792C71.5 28.328 70.672 29.72 69.544 30.968C68.44 32.216 67.036 33.224 65.332 33.992C63.628 34.736 61.588 35.108 59.212 35.108H51.652ZM50.392 35.108V8.612H52.336V35.108H50.392ZM84.765 35.612C83.157 35.612 81.765 35.336 80.589 34.784C79.413 34.208 78.453 33.452 77.709 32.516C76.965 31.556 76.401 30.488 76.017 29.312C75.657 28.112 75.477 26.9 75.477 25.676V25.316C75.477 24.068 75.657 22.868 76.017 21.716C76.401 20.564 76.965 19.52 77.709 18.584C78.477 17.624 79.425 16.88 80.553 16.352C81.705 15.8 83.037 15.524 84.549 15.524C86.469 15.524 88.077 15.956 89.373 16.82C90.693 17.66 91.689 18.764 92.361 20.132C93.033 21.5 93.369 22.94 93.369 24.452V25.748H76.377V24.164H92.109L91.533 24.884C91.533 23.42 91.257 22.112 90.705 20.96C90.177 19.808 89.385 18.908 88.329 18.26C87.297 17.588 86.037 17.252 84.549 17.252C82.941 17.252 81.597 17.624 80.517 18.368C79.437 19.112 78.621 20.108 78.069 21.356C77.541 22.604 77.277 23.984 77.277 25.496C77.277 27.008 77.541 28.4 78.069 29.672C78.621 30.92 79.449 31.94 80.553 32.732C81.657 33.5 83.061 33.884 84.765 33.884C86.589 33.884 88.053 33.464 89.157 32.624C90.285 31.784 90.969 30.776 91.209 29.6H93.081C92.817 30.776 92.313 31.82 91.569 32.732C90.825 33.644 89.877 34.352 88.725 34.856C87.597 35.36 86.277 35.612 84.765 35.612ZM105.122 35.612C103.514 35.612 102.122 35.336 100.946 34.784C99.7698 34.208 98.8098 33.452 98.0658 32.516C97.3218 31.556 96.7578 30.488 96.3738 29.312C96.0138 28.112 95.8338 26.9 95.8338 25.676V25.316C95.8338 24.068 96.0138 22.868 96.3738 21.716C96.7578 20.564 97.3218 19.52 98.0658 18.584C98.8338 17.624 99.7818 16.88 100.91 16.352C102.062 15.8 103.394 15.524 104.906 15.524C106.826 15.524 108.434 15.956 109.73 16.82C111.05 17.66 112.046 18.764 112.718 20.132C113.39 21.5 113.726 22.94 113.726 24.452V25.748H96.7338V24.164H112.466L111.89 24.884C111.89 23.42 111.614 22.112 111.062 20.96C110.534 19.808 109.742 18.908 108.686 18.26C107.654 17.588 106.394 17.252 104.906 17.252C103.298 17.252 101.954 17.624 100.874 18.368C99.7938 19.112 98.9778 20.108 98.4258 21.356C97.8978 22.604 97.6338 23.984 97.6338 25.496C97.6338 27.008 97.8978 28.4 98.4258 29.672C98.9778 30.92 99.8058 31.94 100.91 32.732C102.014 33.5 103.418 33.884 105.122 33.884C106.946 33.884 108.41 33.464 109.514 32.624C110.642 31.784 111.326 30.776 111.566 29.6H113.438C113.174 30.776 112.67 31.82 111.926 32.732C111.182 33.644 110.234 34.352 109.082 34.856C107.954 35.36 106.634 35.612 105.122 35.612ZM117.775 42.2V16.1H119.287V24.164L118.711 24.416C118.735 22.64 119.107 21.092 119.827 19.772C120.571 18.428 121.579 17.384 122.851 16.64C124.123 15.896 125.599 15.524 127.279 15.524C128.719 15.524 130.003 15.8 131.131 16.352C132.259 16.88 133.207 17.612 133.975 18.548C134.767 19.46 135.367 20.504 135.775 21.68C136.183 22.856 136.387 24.092 136.387 25.388V25.748C136.387 26.972 136.183 28.172 135.775 29.348C135.367 30.5 134.767 31.556 133.975 32.516C133.207 33.452 132.259 34.208 131.131 34.784C130.003 35.336 128.719 35.612 127.279 35.612C125.599 35.612 124.111 35.228 122.815 34.46C121.543 33.692 120.547 32.636 119.827 31.292C119.107 29.924 118.723 28.376 118.675 26.648L119.683 29.168V42.2H117.775ZM127.027 33.884C128.611 33.884 129.955 33.5 131.059 32.732C132.187 31.94 133.039 30.92 133.615 29.672C134.191 28.4 134.479 27.032 134.479 25.568C134.479 24.032 134.179 22.64 133.579 21.392C133.003 20.12 132.151 19.112 131.023 18.368C129.919 17.624 128.587 17.252 127.027 17.252C125.587 17.252 124.303 17.576 123.175 18.224C122.071 18.848 121.195 19.724 120.547 20.852C119.899 21.956 119.575 23.228 119.575 24.668V26.504C119.575 27.872 119.887 29.12 120.511 30.248C121.159 31.352 122.035 32.24 123.139 32.912C124.267 33.56 125.563 33.884 127.027 33.884ZM147.968 42.38C147.128 42.38 146.252 42.344 145.34 42.272C144.428 42.2 143.552 42.092 142.712 41.948V40.256C143.576 40.4 144.476 40.508 145.412 40.58C146.372 40.676 147.272 40.724 148.112 40.724C150.032 40.724 151.544 40.472 152.648 39.968C153.752 39.488 154.544 38.684 155.024 37.556C155.504 36.452 155.744 34.976 155.744 33.128V29.24L156.608 26.612C156.584 28.34 156.212 29.864 155.492 31.184C154.796 32.504 153.824 33.548 152.576 34.316C151.328 35.06 149.864 35.432 148.184 35.432C146.768 35.432 145.496 35.168 144.368 34.64C143.264 34.088 142.328 33.356 141.56 32.444C140.792 31.508 140.204 30.452 139.796 29.276C139.388 28.076 139.184 26.852 139.184 25.604V25.244C139.184 24.02 139.388 22.832 139.796 21.68C140.204 20.504 140.792 19.46 141.56 18.548C142.328 17.612 143.276 16.88 144.404 16.352C145.532 15.8 146.816 15.524 148.256 15.524C150.008 15.524 151.52 15.92 152.792 16.712C154.064 17.504 155.036 18.572 155.708 19.916C156.404 21.26 156.764 22.748 156.788 24.38L156.068 23.408V16.1H157.616V33.128C157.616 35.384 157.304 37.184 156.68 38.528C156.056 39.896 155.036 40.88 153.62 41.48C152.204 42.08 150.32 42.38 147.968 42.38ZM148.436 33.668C149.876 33.668 151.148 33.356 152.252 32.732C153.356 32.084 154.22 31.208 154.844 30.104C155.468 28.976 155.78 27.704 155.78 26.288V24.452C155.78 23.084 155.468 21.86 154.844 20.78C154.244 19.676 153.392 18.8 152.288 18.152C151.184 17.504 149.912 17.18 148.472 17.18C146.888 17.18 145.544 17.564 144.44 18.332C143.36 19.1 142.532 20.108 141.956 21.356C141.38 22.604 141.092 23.96 141.092 25.424C141.092 26.936 141.392 28.328 141.992 29.6C142.592 30.848 143.432 31.844 144.512 32.588C145.616 33.308 146.924 33.668 148.436 33.668ZM163.375 35V16.1H164.887V24.092H164.599C164.599 21.356 165.211 19.316 166.435 17.972C167.659 16.628 169.639 15.956 172.375 15.956H173.023V17.684H172.015C169.783 17.684 168.103 18.26 166.975 19.412C165.847 20.54 165.283 22.208 165.283 24.416V35H163.375ZM177.252 35V16.1H179.196V35H177.252ZM174.12 17.756V16.1H179.196V17.756H174.12ZM177.432 12.14C176.928 12.14 176.544 12.008 176.28 11.744C176.016 11.456 175.884 11.096 175.884 10.664C175.884 10.208 176.016 9.836 176.28 9.548C176.544 9.26 176.94 9.116 177.468 9.116C177.972 9.116 178.356 9.26 178.62 9.548C178.884 9.836 179.016 10.208 179.016 10.664C179.016 11.096 178.884 11.456 178.62 11.744C178.38 12.008 177.984 12.14 177.432 12.14ZM192.806 35.612C191.39 35.612 190.106 35.348 188.954 34.82C187.826 34.268 186.866 33.536 186.074 32.624C185.282 31.688 184.67 30.632 184.238 29.456C183.83 28.28 183.626 27.044 183.626 25.748V25.388C183.626 24.14 183.83 22.94 184.238 21.788C184.646 20.612 185.234 19.556 186.002 18.62C186.794 17.66 187.754 16.904 188.882 16.352C190.01 15.8 191.306 15.524 192.77 15.524C194.474 15.524 195.95 15.908 197.198 16.676C198.47 17.444 199.454 18.5 200.15 19.844C200.87 21.164 201.254 22.676 201.302 24.38L200.33 22.256V8.72H202.238V35H200.726V26.612H201.446C201.398 28.412 201.002 29.996 200.258 31.364C199.514 32.708 198.494 33.752 197.198 34.496C195.926 35.24 194.462 35.612 192.806 35.612ZM192.986 33.884C194.45 33.884 195.734 33.56 196.838 32.912C197.966 32.264 198.842 31.388 199.466 30.284C200.114 29.156 200.438 27.872 200.438 26.432V24.56C200.438 23.192 200.114 21.956 199.466 20.852C198.842 19.748 197.966 18.872 196.838 18.224C195.734 17.576 194.45 17.252 192.986 17.252C191.402 17.252 190.058 17.636 188.954 18.404C187.85 19.172 186.998 20.192 186.398 21.464C185.822 22.712 185.534 24.08 185.534 25.568C185.534 27.104 185.834 28.508 186.434 29.78C187.034 31.028 187.886 32.024 188.99 32.768C190.118 33.512 191.45 33.884 192.986 33.884ZM213.856 35.54C211.504 35.54 209.692 35 208.42 33.92C207.172 32.84 206.536 31.46 206.512 29.78H208.384C208.384 30.86 208.804 31.808 209.644 32.624C210.508 33.416 211.912 33.812 213.856 33.812C215.752 33.812 217.144 33.416 218.032 32.624C218.92 31.808 219.364 30.848 219.364 29.744C219.364 28.664 218.956 27.836 218.14 27.26C217.348 26.684 216.268 26.324 214.9 26.18L212.668 25.928C211.012 25.736 209.692 25.22 208.708 24.38C207.748 23.54 207.268 22.4 207.268 20.96C207.268 19.928 207.532 19.004 208.06 18.188C208.588 17.372 209.344 16.724 210.328 16.244C211.336 15.764 212.512 15.524 213.856 15.524C215.824 15.524 217.408 16.004 218.608 16.964C219.832 17.924 220.456 19.232 220.48 20.888H218.608C218.632 19.856 218.224 18.992 217.384 18.296C216.568 17.6 215.392 17.252 213.856 17.252C212.248 17.252 211.048 17.624 210.256 18.368C209.488 19.112 209.104 19.988 209.104 20.996C209.104 21.836 209.404 22.556 210.004 23.156C210.628 23.756 211.564 24.128 212.812 24.272L215.044 24.524C216.82 24.692 218.284 25.208 219.436 26.072C220.612 26.936 221.2 28.172 221.2 29.78C221.2 30.86 220.9 31.832 220.3 32.696C219.724 33.56 218.896 34.256 217.816 34.784C216.736 35.288 215.416 35.54 213.856 35.54Z" fill="white"/>
<path d="M13.618 31.1101C14.2247 30.4074 15.3788 30.8397 15.3752 31.7685L15.3343 42.2241C15.3321 42.7764 14.8827 43.222 14.3304 43.2195L4.54262 43.1748C3.66578 43.1708 3.21762 42.1206 3.82171 41.4854L12.9173 31.9219L13.618 31.1101Z" fill="white"/>
<path d="M1.7677 39.155C1.161 39.8578 0.00694898 39.4254 0.0105803 38.4967L0.0514619 28.0411C0.0536214 27.4888 0.503083 27.0431 1.05536 27.0456L10.8431 27.0903C11.72 27.0943 12.1681 28.1445 11.564 28.7797L2.46847 38.3433L1.7677 39.155Z" fill="white"/>
<path d="M30.8192 11.6355C31.4259 10.9327 32.58 11.3651 32.5763 12.2938L32.5355 22.7495C32.5333 23.3018 32.0838 23.7474 31.5316 23.7449L21.7438 23.7002C20.867 23.6962 20.4188 22.646 21.0229 22.0108L30.1184 12.4473L30.8192 11.6355Z" fill="white"/>
<path d="M18.9708 19.6799C18.3641 20.3827 17.2101 19.9503 17.2137 19.0216L17.2546 8.56596C17.2567 8.01368 17.7062 7.56801 18.2585 7.57053L28.0462 7.61522C28.9231 7.61922 29.3712 8.66945 28.7672 9.30462L19.6716 18.8682L18.9708 19.6799Z" fill="white"/>
<path d="M11.4037 22.4582C12.0323 23.0899 11.5835 24.166 10.6925 24.1633L1.00202 24.135C0.449743 24.1334 0.00315045 23.6843 0.00453453 23.1321L0.0310313 12.5591C0.0333227 11.6448 1.16006 11.2133 1.77301 11.8919L10.4576 21.5073L11.4037 22.4582Z" fill="white"/>
<path d="M3.55238 9.27671C2.92378 8.64497 3.37259 7.56891 4.2636 7.57152L13.954 7.59988C14.5063 7.60149 14.9529 8.05052 14.9515 8.6028L14.925 19.1758C14.9227 20.0901 13.796 20.5216 13.183 19.8429L4.49848 10.2275L3.55238 9.27671Z" fill="white"/>
<path d="M29.0426 41.4721C29.6743 42.1001 29.2309 43.1788 28.3399 43.1814L18.6495 43.2099C18.0972 43.2115 17.6484 42.7651 17.647 42.2128L17.6204 31.6399C17.6181 30.7256 18.7426 30.2874 19.359 30.9625L28.0917 40.5268L29.0426 41.4721Z" fill="white"/>
<path d="M21.1254 28.3375C20.4936 27.7094 20.937 26.6308 21.8281 26.6282L31.5185 26.5997C32.0708 26.598 32.5196 27.0444 32.521 27.5967L32.5476 38.1697C32.5499 39.084 31.4254 39.5221 30.809 38.8471L22.0763 29.2828L21.1254 28.3375Z" fill="white"/>
<rect x="3" y="38.0986" width="26" height="3" fill="black"/>
<rect x="8" y="34.0986" width="18" height="2.16119" fill="black"/>
<rect x="9" y="32.0986" width="15" height="1.0806" fill="black"/>
</svg>
