<svg width="127" height="25" viewBox="0 0 127 25" fill="none" xmlns="http://www.w3.org/2000/svg">
<path d="M31.14 19.06V18.06H35.46C36.54 18.06 37.4733 17.8867 38.26 17.54C39.06 17.1933 39.72 16.72 40.24 16.12C40.76 15.52 41.1467 14.84 41.4 14.08C41.6667 13.3067 41.8 12.5067 41.8 11.68C41.8 10.8133 41.6667 10 41.4 9.24C41.1467 8.48 40.7533 7.80667 40.22 7.22C39.6867 6.63333 39.0267 6.17333 38.24 5.84C37.4533 5.50667 36.5267 5.34 35.46 5.34H31.14V4.34H35.34C36.6333 4.34 37.7533 4.54667 38.7 4.96C39.6467 5.36 40.4267 5.9 41.04 6.58C41.6667 7.26 42.1333 8.02667 42.44 8.88C42.7467 9.73333 42.9 10.6133 42.9 11.52V11.84C42.9 12.7067 42.7533 13.5733 42.46 14.44C42.1667 15.2933 41.7067 16.0667 41.08 16.76C40.4667 17.4533 39.6867 18.0133 38.74 18.44C37.7933 18.8533 36.66 19.06 35.34 19.06H31.14ZM30.44 19.06V4.34H31.52V19.06H30.44ZM49.5361 19.34C48.6428 19.34 47.8694 19.1867 47.2161 18.88C46.5628 18.56 46.0294 18.14 45.6161 17.62C45.2028 17.0867 44.8894 16.4933 44.6761 15.84C44.4761 15.1733 44.3761 14.5 44.3761 13.82V13.62C44.3761 12.9267 44.4761 12.26 44.6761 11.62C44.8894 10.98 45.2028 10.4 45.6161 9.88C46.0428 9.34667 46.5694 8.93333 47.1961 8.64C47.8361 8.33333 48.5761 8.18 49.4161 8.18C50.4828 8.18 51.3761 8.42 52.0961 8.9C52.8294 9.36667 53.3828 9.98 53.7561 10.74C54.1294 11.5 54.3161 12.3 54.3161 13.14V13.86H44.8761V12.98H53.6161L53.2961 13.38C53.2961 12.5667 53.1428 11.84 52.8361 11.2C52.5428 10.56 52.1028 10.06 51.5161 9.7C50.9428 9.32667 50.2428 9.14 49.4161 9.14C48.5228 9.14 47.7761 9.34667 47.1761 9.76C46.5761 10.1733 46.1228 10.7267 45.8161 11.42C45.5228 12.1133 45.3761 12.88 45.3761 13.72C45.3761 14.56 45.5228 15.3333 45.8161 16.04C46.1228 16.7333 46.5828 17.3 47.1961 17.74C47.8094 18.1667 48.5894 18.38 49.5361 18.38C50.5494 18.38 51.3628 18.1467 51.9761 17.68C52.6028 17.2133 52.9828 16.6533 53.1161 16H54.1561C54.0094 16.6533 53.7294 17.2333 53.3161 17.74C52.9028 18.2467 52.3761 18.64 51.7361 18.92C51.1094 19.2 50.3761 19.34 49.5361 19.34ZM60.8455 19.34C59.9521 19.34 59.1788 19.1867 58.5255 18.88C57.8721 18.56 57.3388 18.14 56.9255 17.62C56.5121 17.0867 56.1988 16.4933 55.9855 15.84C55.7855 15.1733 55.6855 14.5 55.6855 13.82V13.62C55.6855 12.9267 55.7855 12.26 55.9855 11.62C56.1988 10.98 56.5121 10.4 56.9255 9.88C57.3521 9.34667 57.8788 8.93333 58.5055 8.64C59.1455 8.33333 59.8855 8.18 60.7255 8.18C61.7921 8.18 62.6855 8.42 63.4055 8.9C64.1388 9.36667 64.6921 9.98 65.0655 10.74C65.4388 11.5 65.6255 12.3 65.6255 13.14V13.86H56.1855V12.98H64.9255L64.6055 13.38C64.6055 12.5667 64.4521 11.84 64.1455 11.2C63.8521 10.56 63.4121 10.06 62.8255 9.7C62.2521 9.32667 61.5521 9.14 60.7255 9.14C59.8321 9.14 59.0855 9.34667 58.4855 9.76C57.8855 10.1733 57.4321 10.7267 57.1255 11.42C56.8321 12.1133 56.6855 12.88 56.6855 13.72C56.6855 14.56 56.8321 15.3333 57.1255 16.04C57.4321 16.7333 57.8921 17.3 58.5055 17.74C59.1188 18.1667 59.8988 18.38 60.8455 18.38C61.8588 18.38 62.6721 18.1467 63.2855 17.68C63.9121 17.2133 64.2921 16.6533 64.4255 16H65.4655C65.3188 16.6533 65.0388 17.2333 64.6255 17.74C64.2121 18.2467 63.6855 18.64 63.0455 18.92C62.4188 19.2 61.6855 19.34 60.8455 19.34ZM67.8748 23V8.5H68.7148V12.98L68.3948 13.12C68.4082 12.1333 68.6148 11.2733 69.0148 10.54C69.4282 9.79333 69.9882 9.21333 70.6948 8.8C71.4015 8.38667 72.2215 8.18 73.1548 8.18C73.9548 8.18 74.6682 8.33333 75.2948 8.64C75.9215 8.93333 76.4482 9.34 76.8748 9.86C77.3148 10.3667 77.6482 10.9467 77.8748 11.6C78.1015 12.2533 78.2148 12.94 78.2148 13.66V13.86C78.2148 14.54 78.1015 15.2067 77.8748 15.86C77.6482 16.5 77.3148 17.0867 76.8748 17.62C76.4482 18.14 75.9215 18.56 75.2948 18.88C74.6682 19.1867 73.9548 19.34 73.1548 19.34C72.2215 19.34 71.3948 19.1267 70.6748 18.7C69.9682 18.2733 69.4148 17.6867 69.0148 16.94C68.6148 16.18 68.4015 15.32 68.3748 14.36L68.9348 15.76V23H67.8748ZM73.0148 18.38C73.8948 18.38 74.6415 18.1667 75.2548 17.74C75.8815 17.3 76.3548 16.7333 76.6748 16.04C76.9948 15.3333 77.1548 14.5733 77.1548 13.76C77.1548 12.9067 76.9882 12.1333 76.6548 11.44C76.3348 10.7333 75.8615 10.1733 75.2348 9.76C74.6215 9.34667 73.8815 9.14 73.0148 9.14C72.2148 9.14 71.5015 9.32 70.8748 9.68C70.2615 10.0267 69.7748 10.5133 69.4148 11.14C69.0548 11.7533 68.8748 12.46 68.8748 13.26V14.28C68.8748 15.04 69.0482 15.7333 69.3948 16.36C69.7548 16.9733 70.2415 17.4667 70.8548 17.84C71.4815 18.2 72.2015 18.38 73.0148 18.38ZM84.6491 23.1C84.1824 23.1 83.6957 23.08 83.1891 23.04C82.6824 23 82.1957 22.94 81.7291 22.86V21.92C82.2091 22 82.7091 22.06 83.2291 22.1C83.7624 22.1533 84.2624 22.18 84.7291 22.18C85.7957 22.18 86.6357 22.04 87.2491 21.76C87.8624 21.4933 88.3024 21.0467 88.5691 20.42C88.8357 19.8067 88.9691 18.9867 88.9691 17.96V15.8L89.4491 14.34C89.4357 15.3 89.2291 16.1467 88.8291 16.88C88.4424 17.6133 87.9024 18.1933 87.2091 18.62C86.5157 19.0333 85.7024 19.24 84.7691 19.24C83.9824 19.24 83.2757 19.0933 82.6491 18.8C82.0357 18.4933 81.5157 18.0867 81.0891 17.58C80.6624 17.06 80.3357 16.4733 80.1091 15.82C79.8824 15.1533 79.7691 14.4733 79.7691 13.78V13.58C79.7691 12.9 79.8824 12.24 80.1091 11.6C80.3357 10.9467 80.6624 10.3667 81.0891 9.86C81.5157 9.34 82.0424 8.93333 82.6691 8.64C83.2957 8.33333 84.0091 8.18 84.8091 8.18C85.7824 8.18 86.6224 8.4 87.3291 8.84C88.0357 9.28 88.5757 9.87333 88.9491 10.62C89.3357 11.3667 89.5357 12.1933 89.5491 13.1L89.1491 12.56V8.5H90.0091V17.96C90.0091 19.2133 89.8357 20.2133 89.4891 20.96C89.1424 21.72 88.5757 22.2667 87.7891 22.6C87.0024 22.9333 85.9557 23.1 84.6491 23.1ZM84.9091 18.26C85.7091 18.26 86.4157 18.0867 87.0291 17.74C87.6424 17.38 88.1224 16.8933 88.4691 16.28C88.8157 15.6533 88.9891 14.9467 88.9891 14.16V13.14C88.9891 12.38 88.8157 11.7 88.4691 11.1C88.1357 10.4867 87.6624 10 87.0491 9.64C86.4357 9.28 85.7291 9.1 84.9291 9.1C84.0491 9.1 83.3024 9.31333 82.6891 9.74C82.0891 10.1667 81.6291 10.7267 81.3091 11.42C80.9891 12.1133 80.8291 12.8667 80.8291 13.68C80.8291 14.52 80.9957 15.2933 81.3291 16C81.6624 16.6933 82.1291 17.2467 82.7291 17.66C83.3424 18.06 84.0691 18.26 84.9091 18.26ZM93.2084 19V8.5H94.0484V12.94H93.8884C93.8884 11.42 94.2284 10.2867 94.9084 9.54C95.5884 8.79333 96.6884 8.42 98.2084 8.42H98.5684V9.38H98.0084C96.7684 9.38 95.8351 9.7 95.2084 10.34C94.5818 10.9667 94.2684 11.8933 94.2684 13.12V19H93.2084ZM100.918 19V8.5H101.998V19H100.918ZM99.1777 9.42V8.5H101.998V9.42H99.1777ZM101.018 6.3C100.738 6.3 100.524 6.22667 100.378 6.08C100.231 5.92 100.158 5.72 100.158 5.48C100.158 5.22667 100.231 5.02 100.378 4.86C100.524 4.7 100.744 4.62 101.038 4.62C101.318 4.62 101.531 4.7 101.678 4.86C101.824 5.02 101.898 5.22667 101.898 5.48C101.898 5.72 101.824 5.92 101.678 6.08C101.544 6.22667 101.324 6.3 101.018 6.3ZM109.559 19.34C108.772 19.34 108.059 19.1933 107.419 18.9C106.792 18.5933 106.259 18.1867 105.819 17.68C105.379 17.16 105.039 16.5733 104.799 15.92C104.572 15.2667 104.459 14.58 104.459 13.86V13.66C104.459 12.9667 104.572 12.3 104.799 11.66C105.026 11.0067 105.352 10.42 105.779 9.9C106.219 9.36667 106.752 8.94667 107.379 8.64C108.006 8.33333 108.726 8.18 109.539 8.18C110.486 8.18 111.306 8.39333 111.999 8.82C112.706 9.24667 113.252 9.83333 113.639 10.58C114.039 11.3133 114.252 12.1533 114.279 13.1L113.739 11.92V4.4H114.799V19H113.959V14.34H114.359C114.332 15.34 114.112 16.22 113.699 16.98C113.286 17.7267 112.719 18.3067 111.999 18.72C111.292 19.1333 110.479 19.34 109.559 19.34ZM109.659 18.38C110.472 18.38 111.186 18.2 111.799 17.84C112.426 17.48 112.912 16.9933 113.259 16.38C113.619 15.7533 113.799 15.04 113.799 14.24V13.2C113.799 12.44 113.619 11.7533 113.259 11.14C112.912 10.5267 112.426 10.04 111.799 9.68C111.186 9.32 110.472 9.14 109.659 9.14C108.779 9.14 108.032 9.35333 107.419 9.78C106.806 10.2067 106.332 10.7733 105.999 11.48C105.679 12.1733 105.519 12.9333 105.519 13.76C105.519 14.6133 105.686 15.3933 106.019 16.1C106.352 16.7933 106.826 17.3467 107.439 17.76C108.066 18.1733 108.806 18.38 109.659 18.38ZM121.253 19.3C119.946 19.3 118.94 19 118.233 18.4C117.54 17.8 117.186 17.0333 117.173 16.1H118.213C118.213 16.7 118.446 17.2267 118.913 17.68C119.393 18.12 120.173 18.34 121.253 18.34C122.306 18.34 123.08 18.12 123.573 17.68C124.066 17.2267 124.313 16.6933 124.313 16.08C124.313 15.48 124.086 15.02 123.633 14.7C123.193 14.38 122.593 14.18 121.833 14.1L120.593 13.96C119.673 13.8533 118.94 13.5667 118.393 13.1C117.86 12.6333 117.593 12 117.593 11.2C117.593 10.6267 117.74 10.1133 118.033 9.66C118.326 9.20667 118.746 8.84667 119.293 8.58C119.853 8.31333 120.506 8.18 121.253 8.18C122.346 8.18 123.226 8.44667 123.893 8.98C124.573 9.51333 124.92 10.24 124.933 11.16H123.893C123.906 10.5867 123.68 10.1067 123.213 9.72C122.76 9.33333 122.106 9.14 121.253 9.14C120.36 9.14 119.693 9.34667 119.253 9.76C118.826 10.1733 118.613 10.66 118.613 11.22C118.613 11.6867 118.78 12.0867 119.113 12.42C119.46 12.7533 119.98 12.96 120.673 13.04L121.913 13.18C122.9 13.2733 123.713 13.56 124.353 14.04C125.006 14.52 125.333 15.2067 125.333 16.1C125.333 16.7 125.166 17.24 124.833 17.72C124.513 18.2 124.053 18.5867 123.453 18.88C122.853 19.16 122.12 19.3 121.253 19.3Z" fill="black"/>
<path d="M8.48693 16.8109C9.06477 16.1915 10.1024 16.6029 10.0988 17.45L10.0767 22.6834C10.0744 23.2357 9.62479 23.6815 9.07251 23.6792L3.90819 23.6573C3.01273 23.6536 2.57325 22.5651 3.21504 21.9406L8.48693 16.8109V16.8109Z" fill="black"/>
<path d="M1.62196 20.7154C1.04412 21.3349 0.00646718 20.9235 0.0100463 20.0764L0.0321582 14.843C0.0344916 14.2907 0.484094 13.8449 1.03637 13.8472L6.2007 13.869C7.09616 13.8728 7.53564 14.9612 6.89385 15.5857L1.62196 20.7154V20.7154Z" fill="black"/>
<path d="M19.7901 4.96914C20.368 4.34972 21.4056 4.76111 21.4021 5.60821L21.38 10.8416C21.3776 11.3939 20.928 11.8397 20.3757 11.8374L15.2114 11.8155C14.316 11.8118 13.8765 10.7233 14.5183 10.0989L19.7901 4.96914V4.96914Z" fill="black"/>
<path d="M12.9257 8.87363C12.3478 9.49305 11.3102 9.08166 11.3138 8.23456L11.3359 3.00117C11.3382 2.44889 11.7878 2.00307 12.3401 2.00541L17.5044 2.02723C18.3999 2.03101 18.8393 3.11945 18.1976 3.74392L12.9257 8.87363V8.87363Z" fill="black"/>
<path d="M6.87117 10.4783C7.49147 11.0552 7.08166 12.0935 6.23455 12.0912L1.00113 12.077C0.448849 12.0755 0.00234862 11.6266 0.00384424 11.0743L0.0178297 5.90999C0.0202547 5.01452 1.10802 4.5734 1.73347 5.21423L6.87117 10.4783V10.4783Z" fill="black"/>
<path d="M2.95598 3.61932C2.33568 3.04242 2.74549 2.00415 3.5926 2.00644L8.82602 2.02061C9.3783 2.02211 9.8248 2.47103 9.8233 3.02332L9.80932 8.18767C9.80689 9.08313 8.71912 9.52426 8.09368 8.88342L2.95598 3.61932V3.61932Z" fill="black"/>
<path d="M18.4581 22.0435C19.0815 22.617 18.6774 23.6575 17.8303 23.6598L12.5968 23.674C12.0446 23.6755 11.5956 23.229 11.5941 22.6767L11.5801 17.5124C11.5776 16.6169 12.663 16.1699 13.2919 16.8073L18.4581 22.0435V22.0435Z" fill="black"/>
<path d="M14.5062 15.206C13.8828 14.6325 14.287 13.592 15.1341 13.5897L20.3675 13.5755C20.9198 13.574 21.3687 14.0205 21.3702 14.5728L21.3843 19.7371C21.3867 20.6326 20.3014 21.0796 19.6724 20.4422L14.5062 15.206V15.206Z" fill="black"/>
<rect x="3" y="20" width="16" height="2" fill="white"/>
<rect x="5" y="18" width="12" height="1" fill="white"/>
<rect x="6" y="17" width="10" height="0.5" fill="white"/>
</svg>
