<svg width="14" height="22" viewBox="0 0 14 22" fill="none" xmlns="http://www.w3.org/2000/svg">
<mask id="path-1-inside-1_243_3028" fill="white">
<path d="M14 15C14 13.1435 13.2625 11.363 11.9497 10.0503C10.637 8.7375 8.85652 8 7 8C5.14349 8 3.36301 8.7375 2.05025 10.0503C0.737498 11.363 2.80326e-07 13.1435 0 15L7 15H14Z"/>
</mask>
<path d="M14 15C14 13.1435 13.2625 11.363 11.9497 10.0503C10.637 8.7375 8.85652 8 7 8C5.14349 8 3.36301 8.7375 2.05025 10.0503C0.737498 11.363 2.80326e-07 13.1435 0 15L7 15H14Z" stroke="white" stroke-width="4" mask="url(#path-1-inside-1_243_3028)"/>
<mask id="path-2-inside-2_243_3028" fill="white">
<path d="M14 11C14 9.14348 13.2625 7.36301 11.9497 6.05025C10.637 4.7375 8.85652 4 7 4C5.14349 4 3.36301 4.7375 2.05025 6.05025C0.737498 7.36301 2.80326e-07 9.14348 0 11L7 11H14Z"/>
</mask>
<path d="M14 11C14 9.14348 13.2625 7.36301 11.9497 6.05025C10.637 4.7375 8.85652 4 7 4C5.14349 4 3.36301 4.7375 2.05025 6.05025C0.737498 7.36301 2.80326e-07 9.14348 0 11L7 11H14Z" stroke="white" stroke-width="4" mask="url(#path-2-inside-2_243_3028)"/>
<mask id="path-3-inside-3_243_3028" fill="white">
<path d="M14 7C14 5.14348 13.2625 3.36301 11.9497 2.05025C10.637 0.737498 8.85652 1.40163e-07 7 0C5.14349 -1.40163e-07 3.36301 0.737498 2.05025 2.05025C0.737498 3.36301 2.80326e-07 5.14348 0 7L7 7H14Z"/>
</mask>
<path d="M14 7C14 5.14348 13.2625 3.36301 11.9497 2.05025C10.637 0.737498 8.85652 1.40163e-07 7 0C5.14349 -1.40163e-07 3.36301 0.737498 2.05025 2.05025C0.737498 3.36301 2.80326e-07 5.14348 0 7L7 7H14Z" stroke="white" stroke-width="4" mask="url(#path-3-inside-3_243_3028)"/>
</svg>
