<svg width="660" height="491" viewBox="0 0 660 491" fill="none" xmlns="http://www.w3.org/2000/svg" xmlns:xlink="http://www.w3.org/1999/xlink">
<rect width="660" height="491" fill="#CFE1FF"/>
<path d="M200.427 259.142L269.602 242.43L241.127 310.973L166 324L200.427 259.142Z" fill="#FFAF1A"/>
<path d="M238.993 310.147L269.5 242.501L313.515 301.9L291.763 377.342L238.993 310.147Z" fill="#FFC665"/>
<path d="M238.85 309.968L165.999 324.001L218.595 387.316L291.757 377.344L238.85 309.968Z" fill="#FB9F02"/>
<path d="M251.704 129.89L288.204 115.889L270.811 145.582L223.703 153.392L251.704 129.89Z" fill="#FADBA0"/>
<path d="M269.501 144.5L288.204 115.392L323.981 158.004L301.205 183.9L269.501 144.5Z" fill="#986000"/>
<path d="M269.319 144.419L223.702 153.393L264.056 168.655L301.727 184.296L269.319 144.419Z" fill="#E49001"/>
<path d="M336 131H374L357 171H294L336 131Z" fill="#F5B051"/>
<path d="M357 171L374 131L392.5 491H357V171Z" fill="#6B4600"/>
<rect x="294" y="171" width="63" height="320" fill="#433118"/>
<rect x="294" y="171" width="63" height="320" fill="url(#pattern0_408_791)"/>
<path d="M332.5 213.5C412.7 213.5 485.296 219.096 537.83 228.138C564.101 232.659 585.331 238.039 599.982 244.001C607.31 246.983 612.964 250.099 616.776 253.306C620.594 256.516 622.5 259.76 622.5 263C622.5 266.24 620.594 269.484 616.776 272.694C612.964 275.901 607.31 279.017 599.982 281.999C585.331 287.961 564.101 293.341 537.83 297.862C485.296 306.904 412.7 312.5 332.5 312.5C252.3 312.5 179.704 306.904 127.17 297.862C100.899 293.341 79.6686 287.961 65.0176 281.999C57.6898 279.017 52.0363 275.901 48.2236 272.694C44.4065 269.484 42.5 266.24 42.5 263C42.5 259.76 44.4065 256.516 48.2236 253.306C52.0363 250.099 57.6898 246.983 65.0176 244.001C79.6686 238.039 100.899 232.659 127.17 228.138C179.704 219.096 252.3 213.5 332.5 213.5Z" stroke="white"/>
<rect x="294" y="210" width="63" height="5" fill="#433118"/>
<circle cx="410" cy="218" r="53" fill="#FFB638"/>
<defs>
<pattern id="pattern0_408_791" patternUnits="userSpaceOnUse" patternTransform="matrix(9.5319 0 0 16.3404 323.715 171)" preserveAspectRatio="none" viewBox="0 0 18.69 32.04" width="1" height="1">
<g id="pattern0_408_791_inner">
<rect width="7" height="12" fill="#FFC75E"/>
</g>
</pattern></defs>
</svg>
