<svg width="127" height="25" viewBox="0 0 127 25" fill="none" xmlns="http://www.w3.org/2000/svg">
<path d="M31.68 19.08V17.28H35.32C36.2 17.28 36.98 17.14 37.66 16.86C38.3533 16.5667 38.94 16.1667 39.42 15.66C39.9133 15.1533 40.2867 14.56 40.54 13.88C40.7933 13.2 40.92 12.4667 40.92 11.68C40.92 10.8533 40.7933 10.1067 40.54 9.44C40.2867 8.76 39.9133 8.17333 39.42 7.68C38.94 7.17333 38.3533 6.78667 37.66 6.52C36.98 6.25333 36.2 6.12 35.32 6.12H31.68V4.32H35.12C36.44 4.32 37.5867 4.52667 38.56 4.94C39.5333 5.34 40.34 5.88667 40.98 6.58C41.6333 7.26 42.12 8.02667 42.44 8.88C42.76 9.72 42.92 10.58 42.92 11.46V11.9C42.92 12.7533 42.76 13.6067 42.44 14.46C42.12 15.3133 41.6333 16.0867 40.98 16.78C40.34 17.4733 39.5333 18.0333 38.56 18.46C37.5867 18.8733 36.44 19.08 35.12 19.08H31.68ZM30.12 19.08V4.32H32.08V19.08H30.12ZM49.2003 19.36C48.267 19.36 47.4603 19.2 46.7803 18.88C46.1003 18.56 45.547 18.14 45.1203 17.62C44.6936 17.0867 44.3736 16.4933 44.1603 15.84C43.9603 15.1867 43.8603 14.52 43.8603 13.84V13.48C43.8603 12.7867 43.9603 12.1133 44.1603 11.46C44.3736 10.8067 44.6936 10.22 45.1203 9.7C45.547 9.16667 46.087 8.74667 46.7403 8.44C47.407 8.12 48.187 7.96 49.0803 7.96C50.2403 7.96 51.1936 8.21333 51.9403 8.72C52.7003 9.21333 53.2603 9.85333 53.6203 10.64C53.9936 11.4267 54.1803 12.2667 54.1803 13.16V14.02H44.7003V12.58H52.7803L52.3403 13.36C52.3403 12.6 52.2203 11.9467 51.9803 11.4C51.7403 10.84 51.3803 10.4067 50.9003 10.1C50.4203 9.79333 49.8136 9.64 49.0803 9.64C48.3203 9.64 47.687 9.81333 47.1803 10.16C46.687 10.5067 46.3136 10.98 46.0603 11.58C45.8203 12.18 45.7003 12.8733 45.7003 13.66C45.7003 14.42 45.8203 15.1067 46.0603 15.72C46.3136 16.32 46.7003 16.8 47.2203 17.16C47.7403 17.5067 48.4003 17.68 49.2003 17.68C50.0403 17.68 50.7203 17.4933 51.2403 17.12C51.7736 16.7467 52.0936 16.3133 52.2003 15.82H54.0003C53.8536 16.5533 53.5603 17.1867 53.1203 17.72C52.6803 18.2533 52.127 18.66 51.4603 18.94C50.7936 19.22 50.0403 19.36 49.2003 19.36ZM60.4464 19.36C59.5131 19.36 58.7064 19.2 58.0264 18.88C57.3464 18.56 56.7931 18.14 56.3664 17.62C55.9397 17.0867 55.6197 16.4933 55.4064 15.84C55.2064 15.1867 55.1064 14.52 55.1064 13.84V13.48C55.1064 12.7867 55.2064 12.1133 55.4064 11.46C55.6197 10.8067 55.9397 10.22 56.3664 9.7C56.7931 9.16667 57.3331 8.74667 57.9864 8.44C58.6531 8.12 59.4331 7.96 60.3264 7.96C61.4864 7.96 62.4397 8.21333 63.1864 8.72C63.9464 9.21333 64.5064 9.85333 64.8664 10.64C65.2397 11.4267 65.4264 12.2667 65.4264 13.16V14.02H55.9464V12.58H64.0264L63.5864 13.36C63.5864 12.6 63.4664 11.9467 63.2264 11.4C62.9864 10.84 62.6264 10.4067 62.1464 10.1C61.6664 9.79333 61.0597 9.64 60.3264 9.64C59.5664 9.64 58.9331 9.81333 58.4264 10.16C57.9331 10.5067 57.5597 10.98 57.3064 11.58C57.0664 12.18 56.9464 12.8733 56.9464 13.66C56.9464 14.42 57.0664 15.1067 57.3064 15.72C57.5597 16.32 57.9464 16.8 58.4664 17.16C58.9864 17.5067 59.6464 17.68 60.4464 17.68C61.2864 17.68 61.9664 17.4933 62.4864 17.12C63.0197 16.7467 63.3397 16.3133 63.4464 15.82H65.2464C65.0997 16.5533 64.8064 17.1867 64.3664 17.72C63.9264 18.2533 63.3731 18.66 62.7064 18.94C62.0397 19.22 61.2864 19.36 60.4464 19.36ZM67.1525 23V8.32H68.6725V12.94L68.3125 12.9C68.3792 11.7533 68.6192 10.82 69.0325 10.1C69.4592 9.36667 70.0125 8.82667 70.6925 8.48C71.3725 8.13333 72.1125 7.96 72.9125 7.96C73.6858 7.96 74.3858 8.10667 75.0125 8.4C75.6525 8.69333 76.1992 9.09333 76.6525 9.6C77.1058 10.1067 77.4525 10.6933 77.6925 11.36C77.9325 12.0267 78.0525 12.7333 78.0525 13.48V13.84C78.0525 14.5867 77.9258 15.2933 77.6725 15.96C77.4192 16.6267 77.0592 17.2133 76.5925 17.72C76.1392 18.2267 75.5925 18.6267 74.9525 18.92C74.3258 19.2133 73.6325 19.36 72.8725 19.36C72.1125 19.36 71.3858 19.1933 70.6925 18.86C69.9992 18.5267 69.4258 17.9867 68.9725 17.24C68.5192 16.4933 68.2592 15.5133 68.1925 14.3L69.0725 15.9V23H67.1525ZM72.5725 17.68C73.2925 17.68 73.9192 17.5133 74.4525 17.18C74.9858 16.8333 75.3992 16.36 75.6925 15.76C75.9858 15.1467 76.1325 14.4467 76.1325 13.66C76.1325 12.86 75.9858 12.16 75.6925 11.56C75.3992 10.96 74.9858 10.4933 74.4525 10.16C73.9192 9.81333 73.2925 9.64 72.5725 9.64C71.9325 9.64 71.3392 9.78667 70.7925 10.08C70.2458 10.36 69.8058 10.7733 69.4725 11.32C69.1525 11.8533 68.9925 12.5 68.9925 13.26V14.18C68.9925 14.9133 69.1592 15.54 69.4925 16.06C69.8258 16.58 70.2658 16.98 70.8125 17.26C71.3592 17.54 71.9458 17.68 72.5725 17.68ZM83.9816 23.16C83.4882 23.16 82.9882 23.14 82.4816 23.1C81.9882 23.06 81.5149 23.0067 81.0616 22.94V21.32C81.5416 21.3867 82.0416 21.44 82.5616 21.48C83.0949 21.5333 83.5949 21.56 84.0616 21.56C85.0349 21.56 85.8082 21.4267 86.3816 21.16C86.9682 20.9067 87.3882 20.5 87.6416 19.94C87.9082 19.3933 88.0416 18.6867 88.0416 17.82V15.78L88.6816 14.26C88.6416 15.34 88.4149 16.24 88.0016 16.96C87.5882 17.6667 87.0482 18.2 86.3816 18.56C85.7282 18.9067 85.0016 19.08 84.2016 19.08C83.4549 19.08 82.7682 18.94 82.1416 18.66C81.5282 18.3667 80.9949 17.9667 80.5416 17.46C80.1016 16.9533 79.7549 16.3733 79.5016 15.72C79.2616 15.0533 79.1416 14.3533 79.1416 13.62V13.26C79.1416 12.5133 79.2682 11.82 79.5216 11.18C79.7749 10.5267 80.1282 9.96 80.5816 9.48C81.0349 9 81.5749 8.62667 82.2016 8.36C82.8416 8.09333 83.5416 7.96 84.3016 7.96C85.1949 7.96 85.9816 8.15333 86.6616 8.54C87.3416 8.91333 87.8749 9.46667 88.2616 10.2C88.6616 10.92 88.8816 11.8067 88.9216 12.86L88.3616 12.88V8.32H89.8816V17.74C89.8816 19.02 89.6816 20.0533 89.2816 20.84C88.8949 21.64 88.2682 22.2267 87.4016 22.6C86.5482 22.9733 85.4082 23.16 83.9816 23.16ZM84.5616 17.32C85.2016 17.32 85.7816 17.18 86.3016 16.9C86.8349 16.62 87.2549 16.22 87.5616 15.7C87.8816 15.1667 88.0416 14.5333 88.0416 13.8V12.88C88.0416 12.16 87.8749 11.5533 87.5416 11.06C87.2216 10.5667 86.8016 10.1933 86.2816 9.94C85.7616 9.68667 85.1949 9.56 84.5816 9.56C83.8882 9.56 83.2749 9.72 82.7416 10.04C82.2082 10.36 81.7949 10.8133 81.5016 11.4C81.2082 11.9733 81.0616 12.6533 81.0616 13.44C81.0616 14.2267 81.2082 14.9133 81.5016 15.5C81.8082 16.0867 82.2216 16.54 82.7416 16.86C83.2749 17.1667 83.8816 17.32 84.5616 17.32ZM92.4377 19V8.32H93.9577V12.72H93.8777C93.8777 11.16 94.2177 10.02 94.8977 9.3C95.591 8.56667 96.6243 8.2 97.9977 8.2H98.3577V9.92H97.6777C96.611 9.92 95.791 10.2067 95.2177 10.78C94.6443 11.34 94.3577 12.1533 94.3577 13.22V19H92.4377ZM100.161 19V8.32H102.081V19H100.161ZM98.5208 9.84V8.32H102.081V9.84H98.5208ZM100.701 6.6C100.274 6.6 99.9541 6.48667 99.7408 6.26C99.5408 6.03333 99.4408 5.74667 99.4408 5.4C99.4408 5.05333 99.5408 4.76667 99.7408 4.54C99.9541 4.31333 100.274 4.2 100.701 4.2C101.127 4.2 101.441 4.31333 101.641 4.54C101.854 4.76667 101.961 5.05333 101.961 5.4C101.961 5.74667 101.854 6.03333 101.641 6.26C101.441 6.48667 101.127 6.6 100.701 6.6ZM109.253 19.36C108.493 19.36 107.793 19.22 107.153 18.94C106.513 18.66 105.953 18.2667 105.473 17.76C105.006 17.2533 104.64 16.6667 104.373 16C104.12 15.3333 103.993 14.6133 103.993 13.84V13.48C103.993 12.72 104.12 12.0067 104.373 11.34C104.626 10.6733 104.98 10.0867 105.433 9.58C105.9 9.07333 106.446 8.68 107.073 8.4C107.713 8.10667 108.42 7.96 109.193 7.96C110.006 7.96 110.746 8.13333 111.413 8.48C112.08 8.81333 112.626 9.34 113.053 10.06C113.48 10.78 113.72 11.7133 113.773 12.86L112.973 11.58V4.4H114.893V19H113.373V14.26H113.933C113.88 15.4733 113.626 16.46 113.173 17.22C112.72 17.9667 112.146 18.5133 111.453 18.86C110.773 19.1933 110.04 19.36 109.253 19.36ZM109.513 17.68C110.166 17.68 110.76 17.5333 111.293 17.24C111.826 16.9467 112.253 16.5267 112.573 15.98C112.893 15.42 113.053 14.7667 113.053 14.02V13.1C113.053 12.3667 112.886 11.7467 112.553 11.24C112.233 10.72 111.8 10.3267 111.253 10.06C110.72 9.78 110.133 9.64 109.493 9.64C108.786 9.64 108.16 9.80667 107.613 10.14C107.08 10.4733 106.66 10.94 106.353 11.54C106.06 12.14 105.913 12.8467 105.913 13.66C105.913 14.4733 106.066 15.1867 106.373 15.8C106.68 16.4 107.106 16.8667 107.653 17.2C108.2 17.52 108.82 17.68 109.513 17.68ZM121.082 19.32C119.682 19.32 118.596 19.02 117.822 18.42C117.062 17.82 116.669 17 116.642 15.96H118.442C118.469 16.3733 118.676 16.7667 119.062 17.14C119.462 17.5 120.136 17.68 121.082 17.68C121.936 17.68 122.589 17.5133 123.042 17.18C123.496 16.8333 123.722 16.4133 123.722 15.92C123.722 15.48 123.556 15.14 123.222 14.9C122.889 14.6467 122.349 14.48 121.602 14.4L120.442 14.28C119.429 14.1733 118.602 13.8733 117.962 13.38C117.322 12.8733 117.002 12.1667 117.002 11.26C117.002 10.58 117.176 10 117.522 9.52C117.869 9.02667 118.349 8.65333 118.962 8.4C119.576 8.13333 120.282 8 121.082 8C122.282 8 123.256 8.26667 124.002 8.8C124.749 9.33333 125.136 10.1267 125.162 11.18H123.362C123.349 10.7533 123.149 10.3933 122.762 10.1C122.389 9.79333 121.829 9.64 121.082 9.64C120.336 9.64 119.769 9.79333 119.382 10.1C118.996 10.4067 118.802 10.7933 118.802 11.26C118.802 11.66 118.936 11.98 119.202 12.22C119.482 12.46 119.936 12.6133 120.562 12.68L121.722 12.8C122.869 12.92 123.789 13.24 124.482 13.76C125.176 14.2667 125.522 14.9867 125.522 15.92C125.522 16.5867 125.329 17.18 124.942 17.7C124.569 18.2067 124.049 18.6067 123.382 18.9C122.716 19.18 121.949 19.32 121.082 19.32Z" fill="white"/>
<path d="M8.48741 16.8109C9.06526 16.1915 10.1029 16.6029 10.0993 17.45L10.0772 22.6834C10.0749 23.2357 9.62528 23.6815 9.073 23.6792L3.90867 23.6573C3.01322 23.6536 2.57374 22.5651 3.21552 21.9406L8.48741 16.8109V16.8109Z" fill="white"/>
<path d="M1.62196 20.7154C1.04412 21.3349 0.00646718 20.9235 0.0100463 20.0764L0.0321582 14.843C0.0344916 14.2907 0.484094 13.8449 1.03637 13.8472L6.2007 13.869C7.09616 13.8728 7.53564 14.9612 6.89385 15.5857L1.62196 20.7154V20.7154Z" fill="white"/>
<path d="M19.7901 4.96914C20.368 4.34972 21.4056 4.76111 21.4021 5.60821L21.38 10.8416C21.3776 11.3939 20.928 11.8397 20.3757 11.8374L15.2114 11.8155C14.316 11.8118 13.8765 10.7233 14.5183 10.0989L19.7901 4.96914V4.96914Z" fill="white"/>
<path d="M12.9257 8.87363C12.3478 9.49305 11.3102 9.08166 11.3138 8.23456L11.3359 3.00117C11.3382 2.44889 11.7878 2.00307 12.3401 2.00541L17.5044 2.02723C18.3999 2.03101 18.8393 3.11945 18.1976 3.74392L12.9257 8.87363V8.87363Z" fill="white"/>
<path d="M6.87117 10.4783C7.49147 11.0552 7.08166 12.0935 6.23455 12.0912L1.00113 12.077C0.448849 12.0755 0.00234862 11.6266 0.00384424 11.0743L0.0178297 5.90999C0.0202547 5.01452 1.10802 4.5734 1.73347 5.21423L6.87117 10.4783V10.4783Z" fill="white"/>
<path d="M2.95598 3.61932C2.33568 3.04242 2.74549 2.00415 3.5926 2.00644L8.82602 2.02061C9.3783 2.02211 9.8248 2.47103 9.8233 3.02332L9.80932 8.18767C9.80689 9.08313 8.71912 9.52426 8.09368 8.88342L2.95598 3.61932V3.61932Z" fill="white"/>
<path d="M18.4581 22.0435C19.0815 22.617 18.6774 23.6575 17.8303 23.6598L12.5968 23.674C12.0446 23.6755 11.5956 23.229 11.5941 22.6767L11.5801 17.5124C11.5776 16.6169 12.663 16.1699 13.2919 16.8073L18.4581 22.0435V22.0435Z" fill="white"/>
<path d="M14.5058 15.206C13.8823 14.6325 14.2865 13.592 15.1336 13.5897L20.367 13.5755C20.9193 13.574 21.3682 14.0205 21.3697 14.5728L21.3838 19.7371C21.3862 20.6326 20.3009 21.0796 19.672 20.4422L14.5058 15.206V15.206Z" fill="white"/>
<rect x="3" y="20" width="16" height="2" fill="black"/>
<rect x="5" y="18" width="12" height="1" fill="black"/>
<rect x="6" y="17" width="10" height="0.5" fill="black"/>
</svg>
