<svg width="87" height="39" viewBox="0 0 87 39" fill="none" xmlns="http://www.w3.org/2000/svg">
<path d="M1.59 36.03V35.54H3.82C4.29333 35.54 4.66333 35.4 4.93 35.12C5.19667 34.84 5.33 34.48 5.33 34.04C5.33 33.5933 5.2 33.2333 4.94 32.96C4.68 32.68 4.30667 32.54 3.82 32.54H1.59V32.16H3.73C4.15667 32.16 4.53 32.23 4.85 32.37C5.17 32.5033 5.42 32.7067 5.6 32.98C5.78667 33.2533 5.88 33.59 5.88 33.99V34.09C5.88 34.4633 5.8 34.7967 5.64 35.09C5.48667 35.3767 5.25 35.6067 4.93 35.78C4.61 35.9467 4.21 36.03 3.73 36.03H1.59ZM1.22 36.03V28.67H1.76V36.03H1.22ZM1.59 32.44V32.06H3.55C4.05667 32.06 4.43 31.9267 4.67 31.66C4.91 31.3867 5.03 31.0367 5.03 30.61C5.03 30.19 4.91 29.8433 4.67 29.57C4.43 29.2967 4.05667 29.16 3.55 29.16H1.59V28.67H3.45C4.17 28.67 4.70333 28.8433 5.05 29.19C5.40333 29.53 5.58 29.9833 5.58 30.55V30.65C5.58 31.0433 5.49333 31.3733 5.32 31.64C5.14667 31.9067 4.9 32.1067 4.58 32.24C4.26667 32.3733 3.89 32.44 3.45 32.44H1.59ZM6.70992 38.04V37.55H7.30992C7.54326 37.55 7.74659 37.52 7.91992 37.46C8.09326 37.4067 8.24326 37.3067 8.36992 37.16C8.50326 37.0133 8.61326 36.8033 8.69992 36.53L10.5699 30.75H11.0999L9.14992 36.7C9.04326 37.0267 8.89992 37.2867 8.71992 37.48C8.54659 37.68 8.33659 37.8233 8.08992 37.91C7.84992 37.9967 7.57659 38.04 7.26992 38.04H6.70992ZM8.52992 35.87V35.4H9.26992V35.87H8.52992ZM8.42992 35.87L6.51992 30.75H7.05992L8.94992 35.87H8.42992ZM14.6473 36.03V35.53H16.8073C17.3473 35.53 17.814 35.4433 18.2073 35.27C18.6073 35.0967 18.9373 34.86 19.1973 34.56C19.4573 34.26 19.6507 33.92 19.7773 33.54C19.9107 33.1533 19.9773 32.7533 19.9773 32.34C19.9773 31.9067 19.9107 31.5 19.7773 31.12C19.6507 30.74 19.454 30.4033 19.1873 30.11C18.9207 29.8167 18.5907 29.5867 18.1973 29.42C17.804 29.2533 17.3407 29.17 16.8073 29.17H14.6473V28.67H16.7473C17.394 28.67 17.954 28.7733 18.4273 28.98C18.9007 29.18 19.2907 29.45 19.5973 29.79C19.9107 30.13 20.144 30.5133 20.2973 30.94C20.4507 31.3667 20.5273 31.8067 20.5273 32.26V32.42C20.5273 32.8533 20.454 33.2867 20.3073 33.72C20.1607 34.1467 19.9307 34.5333 19.6173 34.88C19.3107 35.2267 18.9207 35.5067 18.4473 35.72C17.974 35.9267 17.4073 36.03 16.7473 36.03H14.6473ZM14.2973 36.03V28.67H14.8373V36.03H14.2973ZM23.8454 36.17C23.3987 36.17 23.0121 36.0933 22.6854 35.94C22.3587 35.78 22.0921 35.57 21.8854 35.31C21.6787 35.0433 21.5221 34.7467 21.4154 34.42C21.3154 34.0867 21.2654 33.75 21.2654 33.41V33.31C21.2654 32.9633 21.3154 32.63 21.4154 32.31C21.5221 31.99 21.6787 31.7 21.8854 31.44C22.0987 31.1733 22.3621 30.9667 22.6754 30.82C22.9954 30.6667 23.3654 30.59 23.7854 30.59C24.3187 30.59 24.7654 30.71 25.1254 30.95C25.4921 31.1833 25.7687 31.49 25.9554 31.87C26.1421 32.25 26.2354 32.65 26.2354 33.07V33.43H21.5154V32.99H25.8854L25.7254 33.19C25.7254 32.7833 25.6487 32.42 25.4954 32.1C25.3487 31.78 25.1287 31.53 24.8354 31.35C24.5487 31.1633 24.1987 31.07 23.7854 31.07C23.3387 31.07 22.9654 31.1733 22.6654 31.38C22.3654 31.5867 22.1387 31.8633 21.9854 32.21C21.8387 32.5567 21.7654 32.94 21.7654 33.36C21.7654 33.78 21.8387 34.1667 21.9854 34.52C22.1387 34.8667 22.3687 35.15 22.6754 35.37C22.9821 35.5833 23.3721 35.69 23.8454 35.69C24.3521 35.69 24.7587 35.5733 25.0654 35.34C25.3787 35.1067 25.5687 34.8267 25.6354 34.5H26.1554C26.0821 34.8267 25.9421 35.1167 25.7354 35.37C25.5287 35.6233 25.2654 35.82 24.9454 35.96C24.6321 36.1 24.2654 36.17 23.8454 36.17ZM29.5001 36.17C29.0534 36.17 28.6667 36.0933 28.3401 35.94C28.0134 35.78 27.7467 35.57 27.5401 35.31C27.3334 35.0433 27.1767 34.7467 27.0701 34.42C26.9701 34.0867 26.9201 33.75 26.9201 33.41V33.31C26.9201 32.9633 26.9701 32.63 27.0701 32.31C27.1767 31.99 27.3334 31.7 27.5401 31.44C27.7534 31.1733 28.0167 30.9667 28.3301 30.82C28.6501 30.6667 29.0201 30.59 29.4401 30.59C29.9734 30.59 30.4201 30.71 30.7801 30.95C31.1467 31.1833 31.4234 31.49 31.6101 31.87C31.7967 32.25 31.8901 32.65 31.8901 33.07V33.43H27.1701V32.99H31.5401L31.3801 33.19C31.3801 32.7833 31.3034 32.42 31.1501 32.1C31.0034 31.78 30.7834 31.53 30.4901 31.35C30.2034 31.1633 29.8534 31.07 29.4401 31.07C28.9934 31.07 28.6201 31.1733 28.3201 31.38C28.0201 31.5867 27.7934 31.8633 27.6401 32.21C27.4934 32.5567 27.4201 32.94 27.4201 33.36C27.4201 33.78 27.4934 34.1667 27.6401 34.52C27.7934 34.8667 28.0234 35.15 28.3301 35.37C28.6367 35.5833 29.0267 35.69 29.5001 35.69C30.0067 35.69 30.4134 35.5733 30.7201 35.34C31.0334 35.1067 31.2234 34.8267 31.2901 34.5H31.8101C31.7367 34.8267 31.5967 35.1167 31.3901 35.37C31.1834 35.6233 30.9201 35.82 30.6001 35.96C30.2867 36.1 29.9201 36.17 29.5001 36.17ZM33.0148 38V30.75H33.4348V32.99L33.2748 33.06C33.2814 32.5667 33.3848 32.1367 33.5848 31.77C33.7914 31.3967 34.0714 31.1067 34.4248 30.9C34.7781 30.6933 35.1881 30.59 35.6548 30.59C36.0548 30.59 36.4114 30.6667 36.7248 30.82C37.0381 30.9667 37.3014 31.17 37.5148 31.43C37.7348 31.6833 37.9014 31.9733 38.0148 32.3C38.1281 32.6267 38.1848 32.97 38.1848 33.33V33.43C38.1848 33.77 38.1281 34.1033 38.0148 34.43C37.9014 34.75 37.7348 35.0433 37.5148 35.31C37.3014 35.57 37.0381 35.78 36.7248 35.94C36.4114 36.0933 36.0548 36.17 35.6548 36.17C35.1881 36.17 34.7748 36.0633 34.4148 35.85C34.0614 35.6367 33.7848 35.3433 33.5848 34.97C33.3848 34.59 33.2781 34.16 33.2648 33.68L33.5448 34.38V38H33.0148ZM35.5848 35.69C36.0248 35.69 36.3981 35.5833 36.7048 35.37C37.0181 35.15 37.2548 34.8667 37.4148 34.52C37.5748 34.1667 37.6548 33.7867 37.6548 33.38C37.6548 32.9533 37.5714 32.5667 37.4048 32.22C37.2448 31.8667 37.0081 31.5867 36.6948 31.38C36.3881 31.1733 36.0181 31.07 35.5848 31.07C35.1848 31.07 34.8281 31.16 34.5148 31.34C34.2081 31.5133 33.9648 31.7567 33.7848 32.07C33.6048 32.3767 33.5148 32.73 33.5148 33.13V33.64C33.5148 34.02 33.6014 34.3667 33.7748 34.68C33.9548 34.9867 34.1981 35.2333 34.5048 35.42C34.8181 35.6 35.1781 35.69 35.5848 35.69ZM41.4019 38.05C41.1685 38.05 40.9252 38.04 40.6719 38.02C40.4185 38 40.1752 37.97 39.9419 37.93V37.46C40.1819 37.5 40.4319 37.53 40.6919 37.55C40.9585 37.5767 41.2085 37.59 41.4419 37.59C41.9752 37.59 42.3952 37.52 42.7019 37.38C43.0085 37.2467 43.2285 37.0233 43.3619 36.71C43.4952 36.4033 43.5619 35.9933 43.5619 35.48V34.4L43.8019 33.67C43.7952 34.15 43.6919 34.5733 43.4919 34.94C43.2985 35.3067 43.0285 35.5967 42.6819 35.81C42.3352 36.0167 41.9285 36.12 41.4619 36.12C41.0685 36.12 40.7152 36.0467 40.4019 35.9C40.0952 35.7467 39.8352 35.5433 39.6219 35.29C39.4085 35.03 39.2452 34.7367 39.1319 34.41C39.0185 34.0767 38.9619 33.7367 38.9619 33.39V33.29C38.9619 32.95 39.0185 32.62 39.1319 32.3C39.2452 31.9733 39.4085 31.6833 39.6219 31.43C39.8352 31.17 40.0985 30.9667 40.4119 30.82C40.7252 30.6667 41.0819 30.59 41.4819 30.59C41.9685 30.59 42.3885 30.7 42.7419 30.92C43.0952 31.14 43.3652 31.4367 43.5519 31.81C43.7452 32.1833 43.8452 32.5967 43.8519 33.05L43.6519 32.78V30.75H44.0819V35.48C44.0819 36.1067 43.9952 36.6067 43.8219 36.98C43.6485 37.36 43.3652 37.6333 42.9719 37.8C42.5785 37.9667 42.0552 38.05 41.4019 38.05ZM41.5319 35.63C41.9319 35.63 42.2852 35.5433 42.5919 35.37C42.8985 35.19 43.1385 34.9467 43.3119 34.64C43.4852 34.3267 43.5719 33.9733 43.5719 33.58V33.07C43.5719 32.69 43.4852 32.35 43.3119 32.05C43.1452 31.7433 42.9085 31.5 42.6019 31.32C42.2952 31.14 41.9419 31.05 41.5419 31.05C41.1019 31.05 40.7285 31.1567 40.4219 31.37C40.1219 31.5833 39.8919 31.8633 39.7319 32.21C39.5719 32.5567 39.4919 32.9333 39.4919 33.34C39.4919 33.76 39.5752 34.1467 39.7419 34.5C39.9085 34.8467 40.1419 35.1233 40.4419 35.33C40.7485 35.53 41.1119 35.63 41.5319 35.63ZM45.6816 36V30.75H46.1016V32.97H46.0216C46.0216 32.21 46.1916 31.6433 46.5316 31.27C46.8716 30.8967 47.4216 30.71 48.1816 30.71H48.3616V31.19H48.0816C47.4616 31.19 46.9949 31.35 46.6816 31.67C46.3682 31.9833 46.2116 32.4467 46.2116 33.06V36H45.6816ZM49.5362 36V30.75H50.0762V36H49.5362ZM48.6662 31.21V30.75H50.0762V31.21H48.6662ZM49.5862 29.65C49.4462 29.65 49.3395 29.6133 49.2662 29.54C49.1928 29.46 49.1562 29.36 49.1562 29.24C49.1562 29.1133 49.1928 29.01 49.2662 28.93C49.3395 28.85 49.4495 28.81 49.5962 28.81C49.7362 28.81 49.8428 28.85 49.9162 28.93C49.9895 29.01 50.0262 29.1133 50.0262 29.24C50.0262 29.36 49.9895 29.46 49.9162 29.54C49.8495 29.6133 49.7395 29.65 49.5862 29.65ZM53.8568 36.17C53.4635 36.17 53.1068 36.0967 52.7868 35.95C52.4735 35.7967 52.2068 35.5933 51.9868 35.34C51.7668 35.08 51.5968 34.7867 51.4768 34.46C51.3635 34.1333 51.3068 33.79 51.3068 33.43V33.33C51.3068 32.9833 51.3635 32.65 51.4768 32.33C51.5901 32.0033 51.7535 31.71 51.9668 31.45C52.1868 31.1833 52.4535 30.9733 52.7668 30.82C53.0801 30.6667 53.4401 30.59 53.8468 30.59C54.3201 30.59 54.7301 30.6967 55.0768 30.91C55.4301 31.1233 55.7035 31.4167 55.8968 31.79C56.0968 32.1567 56.2035 32.5767 56.2168 33.05L55.9468 32.46V28.7H56.4768V36H56.0568V33.67H56.2568C56.2435 34.17 56.1335 34.61 55.9268 34.99C55.7201 35.3633 55.4368 35.6533 55.0768 35.86C54.7235 36.0667 54.3168 36.17 53.8568 36.17ZM53.9068 35.69C54.3135 35.69 54.6701 35.6 54.9768 35.42C55.2901 35.24 55.5335 34.9967 55.7068 34.69C55.8868 34.3767 55.9768 34.02 55.9768 33.62V33.1C55.9768 32.72 55.8868 32.3767 55.7068 32.07C55.5335 31.7633 55.2901 31.52 54.9768 31.34C54.6701 31.16 54.3135 31.07 53.9068 31.07C53.4668 31.07 53.0935 31.1767 52.7868 31.39C52.4801 31.6033 52.2435 31.8867 52.0768 32.24C51.9168 32.5867 51.8368 32.9667 51.8368 33.38C51.8368 33.8067 51.9201 34.1967 52.0868 34.55C52.2535 34.8967 52.4901 35.1733 52.7968 35.38C53.1101 35.5867 53.4801 35.69 53.9068 35.69ZM59.7039 36.15C59.0506 36.15 58.5472 36 58.1939 35.7C57.8472 35.4 57.6706 35.0167 57.6639 34.55H58.1839C58.1839 34.85 58.3006 35.1133 58.5339 35.34C58.7739 35.56 59.1639 35.67 59.7039 35.67C60.2306 35.67 60.6172 35.56 60.8639 35.34C61.1106 35.1133 61.2339 34.8467 61.2339 34.54C61.2339 34.24 61.1206 34.01 60.8939 33.85C60.6739 33.69 60.3739 33.59 59.9939 33.55L59.3739 33.48C58.9139 33.4267 58.5472 33.2833 58.2739 33.05C58.0072 32.8167 57.8739 32.5 57.8739 32.1C57.8739 31.8133 57.9472 31.5567 58.0939 31.33C58.2406 31.1033 58.4506 30.9233 58.7239 30.79C59.0039 30.6567 59.3306 30.59 59.7039 30.59C60.2506 30.59 60.6906 30.7233 61.0239 30.99C61.3639 31.2567 61.5372 31.62 61.5439 32.08H61.0239C61.0306 31.7933 60.9172 31.5533 60.6839 31.36C60.4572 31.1667 60.1306 31.07 59.7039 31.07C59.2572 31.07 58.9239 31.1733 58.7039 31.38C58.4906 31.5867 58.3839 31.83 58.3839 32.11C58.3839 32.3433 58.4672 32.5433 58.6339 32.71C58.8072 32.8767 59.0672 32.98 59.4139 33.02L60.0339 33.09C60.5272 33.1367 60.9339 33.28 61.2539 33.52C61.5806 33.76 61.7439 34.1033 61.7439 34.55C61.7439 34.85 61.6606 35.12 61.4939 35.36C61.3339 35.6 61.1039 35.7933 60.8039 35.94C60.5039 36.08 60.1372 36.15 59.7039 36.15ZM65.6883 32.58V28.7H66.1983L67.5383 31.55H67.6383L68.9683 28.7H69.4783V32.58H69.0683V29.13L69.1583 29.14L67.8683 31.89H67.2883L65.9883 29.14L66.0683 29.13V32.58H65.6883ZM63.4883 32.58V28.9H63.8983V32.58H63.4883ZM62.2583 29.07V28.7H65.1283V29.07H62.2583Z" fill="white"/>
<path d="M32.8 19V4.4H35.64V19H32.8ZM35.24 12.92V10.52L41.08 10.5V12.9L35.24 12.92ZM35.24 6.8V4.4H41.36V6.8H35.24ZM47.9375 19.38C46.9775 19.38 46.1308 19.2267 45.3975 18.92C44.6642 18.6133 44.0442 18.2 43.5375 17.68C43.0308 17.1467 42.6442 16.5467 42.3775 15.88C42.1242 15.2133 41.9975 14.52 41.9975 13.8V13.38C41.9975 12.6333 42.1308 11.9267 42.3975 11.26C42.6775 10.58 43.0708 9.98 43.5775 9.46C44.0975 8.92667 44.7242 8.51333 45.4575 8.22C46.1908 7.91333 47.0175 7.76 47.9375 7.76C48.8575 7.76 49.6842 7.91333 50.4175 8.22C51.1508 8.51333 51.7708 8.92667 52.2775 9.46C52.7975 9.98 53.1908 10.58 53.4575 11.26C53.7242 11.9267 53.8575 12.6333 53.8575 13.38V13.8C53.8575 14.52 53.7242 15.2133 53.4575 15.88C53.2042 16.5467 52.8242 17.1467 52.3175 17.68C51.8108 18.2 51.1908 18.6133 50.4575 18.92C49.7242 19.2267 48.8842 19.38 47.9375 19.38ZM47.9375 17C48.6175 17 49.1908 16.8533 49.6575 16.56C50.1242 16.2533 50.4775 15.8467 50.7175 15.34C50.9575 14.82 51.0775 14.2333 51.0775 13.58C51.0775 12.9133 50.9508 12.3267 50.6975 11.82C50.4575 11.3 50.0975 10.8933 49.6175 10.6C49.1508 10.2933 48.5908 10.14 47.9375 10.14C47.2842 10.14 46.7175 10.2933 46.2375 10.6C45.7708 10.8933 45.4108 11.3 45.1575 11.82C44.9042 12.3267 44.7775 12.9133 44.7775 13.58C44.7775 14.2333 44.8975 14.82 45.1375 15.34C45.3908 15.8467 45.7508 16.2533 46.2175 16.56C46.6842 16.8533 47.2575 17 47.9375 17ZM55.4917 19V8.14H57.6917V12.74H57.6317C57.6317 11.18 57.9651 10 58.6317 9.2C59.2984 8.4 60.2784 8 61.5717 8H61.9717V10.42H61.2117C60.2784 10.42 59.5517 10.6733 59.0317 11.18C58.5251 11.6733 58.2717 12.3933 58.2717 13.34V19H55.4917ZM67.1934 23.28C66.6734 23.28 66.1401 23.26 65.5934 23.22C65.0601 23.18 64.5601 23.1267 64.0934 23.06V20.74C64.5734 20.7933 65.0868 20.84 65.6334 20.88C66.1801 20.9333 66.6934 20.96 67.1734 20.96C68.0668 20.96 68.7868 20.8533 69.3334 20.64C69.8934 20.4267 70.3001 20.0867 70.5534 19.62C70.8201 19.1667 70.9534 18.5867 70.9534 17.88V15.74L71.5534 14.38C71.5134 15.38 71.3068 16.2333 70.9334 16.94C70.5601 17.6333 70.0534 18.1667 69.4134 18.54C68.7734 18.9 68.0334 19.08 67.1934 19.08C66.4468 19.08 65.7668 18.94 65.1534 18.66C64.5534 18.38 64.0334 17.9933 63.5934 17.5C63.1668 17.0067 62.8334 16.4267 62.5934 15.76C62.3534 15.0933 62.2334 14.38 62.2334 13.62V13.2C62.2334 12.44 62.3534 11.7333 62.5934 11.08C62.8468 10.4133 63.2001 9.83333 63.6534 9.34C64.1068 8.84667 64.6468 8.46667 65.2734 8.2C65.9001 7.93333 66.5934 7.8 67.3534 7.8C68.2468 7.8 69.0201 7.99333 69.6734 8.38C70.3401 8.76667 70.8601 9.32667 71.2334 10.06C71.6068 10.7933 71.8134 11.6933 71.8534 12.76L71.3734 12.84V8.14H73.5734V17.72C73.5734 19.04 73.3468 20.1067 72.8934 20.92C72.4401 21.7333 71.7401 22.3267 70.7934 22.7C69.8601 23.0867 68.6601 23.28 67.1934 23.28ZM67.9934 16.7C68.5268 16.7 69.0134 16.58 69.4534 16.34C69.8934 16.1 70.2468 15.7533 70.5134 15.3C70.7801 14.8467 70.9134 14.3 70.9134 13.66V12.96C70.9134 12.3467 70.7734 11.8267 70.4934 11.4C70.2268 10.9733 69.8734 10.6533 69.4334 10.44C68.9934 10.2133 68.5134 10.1 67.9934 10.1C67.4068 10.1 66.8868 10.24 66.4334 10.52C65.9934 10.7867 65.6468 11.1667 65.3934 11.66C65.1401 12.1533 65.0134 12.74 65.0134 13.42C65.0134 14.0867 65.1401 14.6667 65.3934 15.16C65.6468 15.6533 65.9934 16.0333 66.4334 16.3C66.8868 16.5667 67.4068 16.7 67.9934 16.7ZM80.6658 19.38C79.7324 19.38 78.9124 19.22 78.2058 18.9C77.5124 18.58 76.9324 18.1533 76.4658 17.62C76.0124 17.0733 75.6658 16.4667 75.4258 15.8C75.1991 15.1333 75.0858 14.4533 75.0858 13.76V13.38C75.0858 12.66 75.1991 11.9667 75.4258 11.3C75.6658 10.62 76.0124 10.02 76.4658 9.5C76.9324 8.96667 77.5058 8.54667 78.1858 8.24C78.8658 7.92 79.6524 7.76 80.5458 7.76C81.7191 7.76 82.6991 8.02 83.4858 8.54C84.2858 9.04667 84.8858 9.72 85.2858 10.56C85.6858 11.3867 85.8858 12.28 85.8858 13.24V14.24H76.2658V12.54H84.1458L83.2858 13.38C83.2858 12.6867 83.1858 12.0933 82.9858 11.6C82.7858 11.1067 82.4791 10.7267 82.0658 10.46C81.6658 10.1933 81.1591 10.06 80.5458 10.06C79.9324 10.06 79.4124 10.2 78.9858 10.48C78.5591 10.76 78.2324 11.1667 78.0058 11.7C77.7924 12.22 77.6858 12.8467 77.6858 13.58C77.6858 14.26 77.7924 14.8667 78.0058 15.4C78.2191 15.92 78.5458 16.3333 78.9858 16.64C79.4258 16.9333 79.9858 17.08 80.6658 17.08C81.3458 17.08 81.8991 16.9467 82.3258 16.68C82.7524 16.4 83.0258 16.06 83.1458 15.66H85.7058C85.5458 16.4067 85.2391 17.06 84.7858 17.62C84.3324 18.18 83.7524 18.6133 83.0458 18.92C82.3524 19.2267 81.5591 19.38 80.6658 19.38Z" fill="white"/>
<rect x="1" y="1" width="23" height="23" fill="white"/>
<path d="M22 9.33333L21.7179 7C21.7179 7 11 7.84222 11 10.4286C11 13.0149 12.9593 21 12.9593 21H15.2308C15.2308 21 12.3935 12.2932 12.6923 11C12.9911 9.70682 22 9.33333 22 9.33333Z" fill="black"/>
<path d="M3 9.95L3.56 8C3.56 8 10 8.23831 10 10.619C10 12.9998 8.09091 21 8.09091 21H5.86364C5.86364 21 8.60977 12.1436 8.32 10.9533C8.03023 9.7629 3 9.95 3 9.95Z" fill="black"/>
<path d="M5 4C5 4 8.74694 6.32071 10.4237 6.28541C12.1005 6.25012 20.7288 4.28568 20.7288 4.28568L21 5.99974C21 5.99974 12.1004 7.96417 10.4237 7.99947C8.74703 8.03477 5 6.28541 5 6.28541V5.40889V4Z" fill="black"/>
</svg>
