<svg width="77" height="56" viewBox="0 0 77 56" fill="none" xmlns="http://www.w3.org/2000/svg">
<path d="M70.6 0.199995V7.4H68.8C64.9333 7.4 61.7333 8.13333 59.2 9.59999C56.8 10.9333 55 13.4 53.8 17C52.7333 20.4667 52.2 25.2667 52.2 31.4V43L49.6 38.6C50.2667 38.0667 51.2 37.6 52.4 37.2C53.6 36.8 54.9333 36.6 56.4 36.6C59.2 36.6 61.4667 37.4667 63.2 39.2C64.9333 40.9333 65.8 43.2667 65.8 46.2C65.8 49 65 51.2667 63.4 53C61.8 54.7333 59.4667 55.6 56.4 55.6C54.1333 55.6 52.1333 55.0667 50.4 54C48.6667 52.9333 47.2667 51.1333 46.2 48.6C45.1333 45.9333 44.6 42.3333 44.6 37.8V34C44.6 24.8 45.5333 17.8 47.4 13C49.4 8.06666 52.2 4.73333 55.8 2.99999C59.5333 1.13333 63.8667 0.199995 68.8 0.199995H70.6ZM35.8 0.199995V7.4H34C30.1333 7.4 26.9333 8.13333 24.4 9.59999C22 10.9333 20.2 13.4 19 17C17.9333 20.4667 17.4 25.2667 17.4 31.4V43L14.8 38.6C15.4667 38.0667 16.4 37.6 17.6 37.2C18.8 36.8 20.1333 36.6 21.6 36.6C24.4 36.6 26.6667 37.4667 28.4 39.2C30.1333 40.9333 31 43.2667 31 46.2C31 49 30.2 51.2667 28.6 53C27 54.7333 24.6667 55.6 21.6 55.6C19.3333 55.6 17.3333 55.0667 15.6 54C13.8667 52.9333 12.4667 51.1333 11.4 48.6C10.3333 45.9333 9.8 42.3333 9.8 37.8V34C9.8 24.8 10.7333 17.8 12.6 13C14.6 8.06666 17.4 4.73333 21 2.99999C24.7333 1.13333 29.0667 0.199995 34 0.199995H35.8Z" fill="black"/>
</svg>
