<svg width="119" height="48" viewBox="0 0 119 48" fill="none" xmlns="http://www.w3.org/2000/svg">
<path d="M2.067 44.039V43.402H4.966C5.58133 43.402 6.06233 43.22 6.409 42.856C6.75567 42.492 6.929 42.024 6.929 41.452C6.929 40.8713 6.76 40.4033 6.422 40.048C6.084 39.684 5.59867 39.502 4.966 39.502H2.067V39.008H4.849C5.40367 39.008 5.889 39.099 6.305 39.281C6.721 39.4543 7.046 39.7187 7.28 40.074C7.52267 40.4293 7.644 40.867 7.644 41.387V41.517C7.644 42.0023 7.54 42.4357 7.332 42.817C7.13267 43.1897 6.825 43.4887 6.409 43.714C5.993 43.9307 5.473 44.039 4.849 44.039H2.067ZM1.586 44.039V34.471H2.288V44.039H1.586ZM2.067 39.372V38.878H4.615C5.27367 38.878 5.759 38.7047 6.071 38.358C6.383 38.0027 6.539 37.5477 6.539 36.993C6.539 36.447 6.383 35.9963 6.071 35.641C5.759 35.2857 5.27367 35.108 4.615 35.108H2.067V34.471H4.485C5.421 34.471 6.11433 34.6963 6.565 35.147C7.02433 35.589 7.254 36.1783 7.254 36.915V37.045C7.254 37.5563 7.14133 37.9853 6.916 38.332C6.69067 38.6787 6.37 38.9387 5.954 39.112C5.54667 39.2853 5.057 39.372 4.485 39.372H2.067ZM8.7229 46.652V46.015H9.5029C9.80623 46.015 10.0706 45.976 10.2959 45.898C10.5212 45.8287 10.7162 45.6987 10.8809 45.508C11.0542 45.3173 11.1972 45.0443 11.3099 44.689L13.7409 37.175H14.4299L11.8949 44.91C11.7562 45.3347 11.5699 45.6727 11.3359 45.924C11.1106 46.184 10.8376 46.3703 10.5169 46.483C10.2049 46.5957 9.84956 46.652 9.4509 46.652H8.7229ZM11.0889 43.831V43.22H12.0509V43.831H11.0889ZM10.9589 43.831L8.4759 37.175H9.1779L11.6349 43.831H10.9589ZM19.0415 44.039V43.389H21.8495C22.5515 43.389 23.1582 43.2763 23.6695 43.051C24.1895 42.8257 24.6185 42.518 24.9565 42.128C25.2945 41.738 25.5459 41.296 25.7105 40.802C25.8839 40.2993 25.9705 39.7793 25.9705 39.242C25.9705 38.6787 25.8839 38.15 25.7105 37.656C25.5459 37.162 25.2902 36.7243 24.9435 36.343C24.5969 35.9617 24.1679 35.6627 23.6565 35.446C23.1452 35.2293 22.5429 35.121 21.8495 35.121H19.0415V34.471H21.7715C22.6122 34.471 23.3402 34.6053 23.9555 34.874C24.5709 35.134 25.0779 35.485 25.4765 35.927C25.8839 36.369 26.1872 36.8673 26.3865 37.422C26.5859 37.9767 26.6855 38.5487 26.6855 39.138V39.346C26.6855 39.9093 26.5902 40.4727 26.3995 41.036C26.2089 41.5907 25.9099 42.0933 25.5025 42.544C25.1039 42.9947 24.5969 43.3587 23.9815 43.636C23.3662 43.9047 22.6295 44.039 21.7715 44.039H19.0415ZM18.5865 44.039V34.471H19.2885V44.039H18.5865ZM30.999 44.221C30.4183 44.221 29.9157 44.1213 29.491 43.922C29.0663 43.714 28.7197 43.441 28.451 43.103C28.1823 42.7563 27.9787 42.3707 27.84 41.946C27.71 41.5127 27.645 41.075 27.645 40.633V40.503C27.645 40.0523 27.71 39.619 27.84 39.203C27.9787 38.787 28.1823 38.41 28.451 38.072C28.7283 37.7253 29.0707 37.4567 29.478 37.266C29.894 37.0667 30.375 36.967 30.921 36.967C31.6143 36.967 32.195 37.123 32.663 37.435C33.1397 37.7383 33.4993 38.137 33.742 38.631C33.9847 39.125 34.106 39.645 34.106 40.191V40.659H27.97V40.087H33.651L33.443 40.347C33.443 39.8183 33.3433 39.346 33.144 38.93C32.9533 38.514 32.6673 38.189 32.286 37.955C31.9133 37.7123 31.4583 37.591 30.921 37.591C30.3403 37.591 29.855 37.7253 29.465 37.994C29.075 38.2627 28.7803 38.6223 28.581 39.073C28.3903 39.5237 28.295 40.022 28.295 40.568C28.295 41.114 28.3903 41.6167 28.581 42.076C28.7803 42.5267 29.0793 42.895 29.478 43.181C29.8767 43.4583 30.3837 43.597 30.999 43.597C31.6577 43.597 32.1863 43.4453 32.585 43.142C32.9923 42.8387 33.2393 42.4747 33.326 42.05H34.002C33.9067 42.4747 33.7247 42.8517 33.456 43.181C33.1873 43.5103 32.845 43.766 32.429 43.948C32.0217 44.13 31.545 44.221 30.999 44.221ZM38.3501 44.221C37.7694 44.221 37.2668 44.1213 36.8421 43.922C36.4174 43.714 36.0708 43.441 35.8021 43.103C35.5334 42.7563 35.3298 42.3707 35.1911 41.946C35.0611 41.5127 34.9961 41.075 34.9961 40.633V40.503C34.9961 40.0523 35.0611 39.619 35.1911 39.203C35.3298 38.787 35.5334 38.41 35.8021 38.072C36.0794 37.7253 36.4218 37.4567 36.8291 37.266C37.2451 37.0667 37.7261 36.967 38.2721 36.967C38.9654 36.967 39.5461 37.123 40.0141 37.435C40.4908 37.7383 40.8504 38.137 41.0931 38.631C41.3358 39.125 41.4571 39.645 41.4571 40.191V40.659H35.3211V40.087H41.0021L40.7941 40.347C40.7941 39.8183 40.6944 39.346 40.4951 38.93C40.3044 38.514 40.0184 38.189 39.6371 37.955C39.2644 37.7123 38.8094 37.591 38.2721 37.591C37.6914 37.591 37.2061 37.7253 36.8161 37.994C36.4261 38.2627 36.1314 38.6223 35.9321 39.073C35.7414 39.5237 35.6461 40.022 35.6461 40.568C35.6461 41.114 35.7414 41.6167 35.9321 42.076C36.1314 42.5267 36.4304 42.895 36.8291 43.181C37.2278 43.4583 37.7348 43.597 38.3501 43.597C39.0088 43.597 39.5374 43.4453 39.9361 43.142C40.3434 42.8387 40.5904 42.4747 40.6771 42.05H41.3531C41.2578 42.4747 41.0758 42.8517 40.8071 43.181C40.5384 43.5103 40.1961 43.766 39.7801 43.948C39.3728 44.13 38.8961 44.221 38.3501 44.221ZM42.9192 46.6V37.175H43.4652V40.087L43.2572 40.178C43.2659 39.5367 43.4002 38.9777 43.6602 38.501C43.9289 38.0157 44.2929 37.6387 44.7522 37.37C45.2115 37.1013 45.7445 36.967 46.3512 36.967C46.8712 36.967 47.3349 37.0667 47.7422 37.266C48.1495 37.4567 48.4919 37.721 48.7692 38.059C49.0552 38.3883 49.2719 38.7653 49.4192 39.19C49.5665 39.6147 49.6402 40.061 49.6402 40.529V40.659C49.6402 41.101 49.5665 41.5343 49.4192 41.959C49.2719 42.375 49.0552 42.7563 48.7692 43.103C48.4919 43.441 48.1495 43.714 47.7422 43.922C47.3349 44.1213 46.8712 44.221 46.3512 44.221C45.7445 44.221 45.2072 44.0823 44.7392 43.805C44.2799 43.5277 43.9202 43.1463 43.6602 42.661C43.4002 42.167 43.2615 41.608 43.2442 40.984L43.6082 41.894V46.6H42.9192ZM46.2602 43.597C46.8322 43.597 47.3175 43.4583 47.7162 43.181C48.1235 42.895 48.4312 42.5267 48.6392 42.076C48.8472 41.6167 48.9512 41.1227 48.9512 40.594C48.9512 40.0393 48.8429 39.5367 48.6262 39.086C48.4182 38.6267 48.1105 38.2627 47.7032 37.994C47.3045 37.7253 46.8235 37.591 46.2602 37.591C45.7402 37.591 45.2765 37.708 44.8692 37.942C44.4705 38.1673 44.1542 38.4837 43.9202 38.891C43.6862 39.2897 43.5692 39.749 43.5692 40.269V40.932C43.5692 41.426 43.6819 41.8767 43.9072 42.284C44.1412 42.6827 44.4575 43.0033 44.8562 43.246C45.2635 43.48 45.7315 43.597 46.2602 43.597ZM53.8224 46.665C53.5191 46.665 53.2028 46.652 52.8734 46.626C52.5441 46.6 52.2278 46.561 51.9244 46.509V45.898C52.2364 45.95 52.5614 45.989 52.8994 46.015C53.2461 46.0497 53.5711 46.067 53.8744 46.067C54.5678 46.067 55.1138 45.976 55.5124 45.794C55.9111 45.6207 56.1971 45.3303 56.3704 44.923C56.5438 44.5243 56.6304 43.9913 56.6304 43.324V41.92L56.9424 40.971C56.9338 41.595 56.7994 42.1453 56.5394 42.622C56.2881 43.0987 55.9371 43.4757 55.4864 43.753C55.0358 44.0217 54.5071 44.156 53.9004 44.156C53.3891 44.156 52.9298 44.0607 52.5224 43.87C52.1238 43.6707 51.7858 43.4063 51.5084 43.077C51.2311 42.739 51.0188 42.3577 50.8714 41.933C50.7241 41.4997 50.6504 41.0577 50.6504 40.607V40.477C50.6504 40.035 50.7241 39.606 50.8714 39.19C51.0188 38.7653 51.2311 38.3883 51.5084 38.059C51.7858 37.721 52.1281 37.4567 52.5354 37.266C52.9428 37.0667 53.4064 36.967 53.9264 36.967C54.5591 36.967 55.1051 37.11 55.5644 37.396C56.0238 37.682 56.3748 38.0677 56.6174 38.553C56.8688 39.0383 56.9988 39.5757 57.0074 40.165L56.7474 39.814V37.175H57.3064V43.324C57.3064 44.1387 57.1938 44.7887 56.9684 45.274C56.7431 45.768 56.3748 46.1233 55.8634 46.34C55.3521 46.5567 54.6718 46.665 53.8224 46.665ZM53.9914 43.519C54.5114 43.519 54.9708 43.4063 55.3694 43.181C55.7681 42.947 56.0801 42.6307 56.3054 42.232C56.5308 41.8247 56.6434 41.3653 56.6434 40.854V40.191C56.6434 39.697 56.5308 39.255 56.3054 38.865C56.0888 38.4663 55.7811 38.15 55.3824 37.916C54.9838 37.682 54.5244 37.565 54.0044 37.565C53.4324 37.565 52.9471 37.7037 52.5484 37.981C52.1584 38.2583 51.8594 38.6223 51.6514 39.073C51.4434 39.5237 51.3394 40.0133 51.3394 40.542C51.3394 41.088 51.4478 41.5907 51.6644 42.05C51.8811 42.5007 52.1844 42.8603 52.5744 43.129C52.9731 43.389 53.4454 43.519 53.9914 43.519ZM59.386 44V37.175H59.932V40.061H59.828C59.828 39.073 60.049 38.3363 60.491 37.851C60.933 37.3657 61.648 37.123 62.636 37.123H62.87V37.747H62.506C61.7 37.747 61.0934 37.955 60.686 38.371C60.2787 38.7783 60.075 39.3807 60.075 40.178V44H59.386ZM64.397 44V37.175H65.099V44H64.397ZM63.266 37.773V37.175H65.099V37.773H63.266ZM64.462 35.745C64.28 35.745 64.1414 35.6973 64.046 35.602C63.9507 35.498 63.903 35.368 63.903 35.212C63.903 35.0473 63.9507 34.913 64.046 34.809C64.1414 34.705 64.2844 34.653 64.475 34.653C64.657 34.653 64.7957 34.705 64.891 34.809C64.9864 34.913 65.034 35.0473 65.034 35.212C65.034 35.368 64.9864 35.498 64.891 35.602C64.8044 35.6973 64.6614 35.745 64.462 35.745ZM70.0138 44.221C69.5025 44.221 69.0388 44.1257 68.6228 43.935C68.2155 43.7357 67.8688 43.4713 67.5828 43.142C67.2968 42.804 67.0758 42.4227 66.9198 41.998C66.7725 41.5733 66.6988 41.127 66.6988 40.659V40.529C66.6988 40.0783 66.7725 39.645 66.9198 39.229C67.0672 38.8043 67.2795 38.423 67.5568 38.085C67.8428 37.7383 68.1895 37.4653 68.5968 37.266C69.0042 37.0667 69.4722 36.967 70.0008 36.967C70.6162 36.967 71.1492 37.1057 71.5998 37.383C72.0592 37.6603 72.4145 38.0417 72.6658 38.527C72.9258 39.0037 73.0645 39.5497 73.0818 40.165L72.7308 39.398V34.51H73.4198V44H72.8738V40.971H73.1338C73.1165 41.621 72.9735 42.193 72.7048 42.687C72.4362 43.1723 72.0678 43.5493 71.5998 43.818C71.1405 44.0867 70.6118 44.221 70.0138 44.221ZM70.0788 43.597C70.6075 43.597 71.0712 43.48 71.4698 43.246C71.8772 43.012 72.1935 42.6957 72.4188 42.297C72.6528 41.8897 72.7698 41.426 72.7698 40.906V40.23C72.7698 39.736 72.6528 39.2897 72.4188 38.891C72.1935 38.4923 71.8772 38.176 71.4698 37.942C71.0712 37.708 70.6075 37.591 70.0788 37.591C69.5068 37.591 69.0215 37.7297 68.6228 38.007C68.2242 38.2843 67.9165 38.6527 67.6998 39.112C67.4918 39.5627 67.3878 40.0567 67.3878 40.594C67.3878 41.1487 67.4962 41.6557 67.7128 42.115C67.9295 42.5657 68.2372 42.9253 68.6358 43.194C69.0432 43.4627 69.5242 43.597 70.0788 43.597ZM77.6151 44.195C76.7657 44.195 76.1114 44 75.6521 43.61C75.2014 43.22 74.9717 42.7217 74.9631 42.115H75.6391C75.6391 42.505 75.7907 42.8473 76.0941 43.142C76.4061 43.428 76.9131 43.571 77.6151 43.571C78.2997 43.571 78.8024 43.428 79.1231 43.142C79.4437 42.8473 79.6041 42.5007 79.6041 42.102C79.6041 41.712 79.4567 41.413 79.1621 41.205C78.8761 40.997 78.4861 40.867 77.9921 40.815L77.1861 40.724C76.5881 40.6547 76.1114 40.4683 75.7561 40.165C75.4094 39.8617 75.2361 39.45 75.2361 38.93C75.2361 38.5573 75.3314 38.2237 75.5221 37.929C75.7127 37.6343 75.9857 37.4003 76.3411 37.227C76.7051 37.0537 77.1297 36.967 77.6151 36.967C78.3257 36.967 78.8977 37.1403 79.3311 37.487C79.7731 37.8337 79.9984 38.306 80.0071 38.904H79.3311C79.3397 38.5313 79.1924 38.2193 78.8891 37.968C78.5944 37.7167 78.1697 37.591 77.6151 37.591C77.0344 37.591 76.6011 37.7253 76.3151 37.994C76.0377 38.2627 75.8991 38.579 75.8991 38.943C75.8991 39.2463 76.0074 39.5063 76.2241 39.723C76.4494 39.9397 76.7874 40.074 77.2381 40.126L78.0441 40.217C78.6854 40.2777 79.2141 40.464 79.6301 40.776C80.0547 41.088 80.2671 41.5343 80.2671 42.115C80.2671 42.505 80.1587 42.856 79.9421 43.168C79.7341 43.48 79.4351 43.7313 79.0451 43.922C78.6551 44.104 78.1784 44.195 77.6151 44.195ZM85.3948 39.554V34.51H86.0578L87.7998 38.215H87.9298L89.6588 34.51H90.3218V39.554H89.7888V35.069L89.9058 35.082L88.2288 38.657H87.4748L85.7848 35.082L85.8888 35.069V39.554H85.3948ZM82.5348 39.554V34.77H83.0678V39.554H82.5348ZM80.9358 34.991V34.51H84.6668V34.991H80.9358Z" fill="white"/>
<path d="M40.096 23L34.504 5.48H38.032L42.664 20.648L41.656 20.168H44.248L43.216 20.648L47.488 5.48H50.896L45.712 23H40.096ZM52.6694 23V9.968H56.0054V23H52.6694ZM50.8454 12.464V9.968H56.0054V12.464H50.8454ZM53.8934 8.408C53.2374 8.408 52.7494 8.24 52.4294 7.904C52.1254 7.552 51.9734 7.12 51.9734 6.608C51.9734 6.064 52.1254 5.624 52.4294 5.288C52.7494 4.952 53.2374 4.784 53.8934 4.784C54.5494 4.784 55.0294 4.952 55.3334 5.288C55.6374 5.624 55.7894 6.064 55.7894 6.608C55.7894 7.12 55.6374 7.552 55.3334 7.904C55.0294 8.24 54.5494 8.408 53.8934 8.408ZM63.6181 23.408C61.8261 23.408 60.4181 23.032 59.3941 22.28C58.3861 21.512 57.8581 20.456 57.8101 19.112H60.8101C60.8581 19.56 61.1061 19.968 61.5541 20.336C62.0021 20.704 62.7061 20.888 63.6661 20.888C64.4661 20.888 65.0981 20.744 65.5621 20.456C66.0421 20.168 66.2821 19.776 66.2821 19.28C66.2821 18.848 66.0981 18.504 65.7301 18.248C65.3781 17.992 64.7701 17.824 63.9061 17.744L62.7541 17.624C61.2981 17.464 60.1781 17.048 59.3941 16.376C58.6101 15.704 58.2181 14.808 58.2181 13.688C58.2181 12.792 58.4421 12.04 58.8901 11.432C59.3381 10.824 59.9541 10.368 60.7381 10.064C61.5381 9.744 62.4501 9.584 63.4741 9.584C65.0741 9.584 66.3701 9.936 67.3621 10.64C68.3541 11.344 68.8741 12.376 68.9221 13.736H65.9221C65.8901 13.288 65.6661 12.904 65.2501 12.584C64.8341 12.264 64.2341 12.104 63.4501 12.104C62.7461 12.104 62.2021 12.24 61.8181 12.512C61.4341 12.784 61.2421 13.136 61.2421 13.568C61.2421 13.984 61.3941 14.304 61.6981 14.528C62.0181 14.752 62.5301 14.904 63.2341 14.984L64.3861 15.104C65.9221 15.264 67.1221 15.688 67.9861 16.376C68.8661 17.064 69.3061 17.992 69.3061 19.16C69.3061 20.024 69.0661 20.776 68.5861 21.416C68.1221 22.04 67.4661 22.528 66.6181 22.88C65.7701 23.232 64.7701 23.408 63.6181 23.408ZM71.7259 23V9.968H75.0619V23H71.7259ZM69.9019 12.464V9.968H75.0619V12.464H69.9019ZM72.9499 8.408C72.2939 8.408 71.8059 8.24 71.4859 7.904C71.1819 7.552 71.0299 7.12 71.0299 6.608C71.0299 6.064 71.1819 5.624 71.4859 5.288C71.8059 4.952 72.2939 4.784 72.9499 4.784C73.6059 4.784 74.0859 4.952 74.3899 5.288C74.6939 5.624 74.8459 6.064 74.8459 6.608C74.8459 7.12 74.6939 7.552 74.3899 7.904C74.0859 8.24 73.6059 8.408 72.9499 8.408ZM78.1146 23V5.48H81.4506V23H78.1146ZM76.4826 7.976V5.48H81.4506V7.976H76.4826ZM84.9231 23V9.968H88.2591V23H84.9231ZM83.0991 12.464V9.968H88.2591V12.464H83.0991ZM86.1471 8.408C85.4911 8.408 85.0031 8.24 84.6831 7.904C84.3791 7.552 84.2271 7.12 84.2271 6.608C84.2271 6.064 84.3791 5.624 84.6831 5.288C85.0031 4.952 85.4911 4.784 86.1471 4.784C86.8031 4.784 87.2831 4.952 87.5871 5.288C87.8911 5.624 88.0431 6.064 88.0431 6.608C88.0431 7.12 87.8911 7.552 87.5871 7.904C87.2831 8.24 86.8031 8.408 86.1471 8.408ZM91.1438 23V9.968H93.7838V15.56H93.5438C93.5438 14.232 93.7198 13.128 94.0718 12.248C94.4238 11.352 94.9438 10.68 95.6318 10.232C96.3358 9.784 97.2078 9.56 98.2478 9.56H98.3918C99.9438 9.56 101.12 10.064 101.92 11.072C102.72 12.064 103.12 13.552 103.12 15.536V23H99.7838V15.248C99.7838 14.448 99.5518 13.8 99.0878 13.304C98.6398 12.808 98.0158 12.56 97.2158 12.56C96.3998 12.56 95.7358 12.816 95.2238 13.328C94.7278 13.824 94.4798 14.496 94.4798 15.344V23H91.1438ZM114.866 23L110.498 16.904H108.554L114.098 9.968H117.578L112.466 16.376L112.538 14.696L118.634 23H114.866ZM105.746 23V5.48H109.082V23H105.746Z" fill="white"/>
<rect y="2" width="26" height="26" fill="white"/>
<path d="M24 11.6667L23.6923 9C23.6923 9 12 9.96254 12 12.9184C12 15.8742 14.1374 25 14.1374 25H16.6154C16.6154 25 13.5201 15.0493 13.8462 13.5714C14.1722 12.0935 24 11.6667 24 11.6667Z" fill="black"/>
<path d="M3 12.25L3.64 10C3.64 10 11 10.275 11 13.022C11 15.769 8.81818 25 8.81818 25H6.27273C6.27273 25 9.41117 14.7811 9.08 13.4076C8.74883 12.0341 3 12.25 3 12.25Z" fill="black"/>
<path d="M5 6C5 6 9.2153 8.32071 11.1017 8.28541C12.9881 8.25012 22.6949 6.28568 22.6949 6.28568L23 7.99974C23 7.99974 12.988 9.96417 11.1017 9.99947C9.21541 10.0348 5 8.28541 5 8.28541V7.40889V6Z" fill="black"/>
</svg>
