<svg width="770" height="515" viewBox="0 0 770 515" fill="none" xmlns="http://www.w3.org/2000/svg">
<g clip-path="url(#clip0_469_217)">
<rect width="770" height="515" fill="url(#paint0_radial_469_217)"/>
<path d="M657.919 -10.1168L779.178 -22.8331L715.298 87.1181L584.727 91.9259L657.919 -10.1168Z" fill="#575757"/>
<path d="M711.856 85.228L773.338 -25.3361L840.277 88.0995L786.255 211.291L711.856 85.228Z" fill="#313131"/>
<path d="M711.662 84.9008L584.824 91.9667L659.749 211.667L786.251 211.3L711.662 84.9008Z" fill="#3C3C3C"/>
<g filter="url(#filter0_n_469_217)">
<path d="M129.427 555.386L12.2005 555.674L84.5658 450.939L215.578 462.845L129.427 555.386Z" fill="#282828"/>
</g>
<g filter="url(#filter1_n_469_217)">
<path d="M87.7575 453.266L12.211 555.815L-40.1242 433.966L29.5891 317.853L87.7575 453.266Z" fill="#313131"/>
</g>
<g filter="url(#filter2_n_469_217)">
<path d="M87.9111 453.621L215.646 462.742L155.975 333.667L29.5953 317.847L87.9111 453.621Z" fill="#494949"/>
</g>
<path d="M324.624 270.144V266.904H331.176C332.76 266.904 334.164 266.652 335.388 266.148C336.636 265.62 337.692 264.9 338.556 263.988C339.444 263.076 340.116 262.008 340.572 260.784C341.028 259.56 341.256 258.24 341.256 256.824C341.256 255.336 341.028 253.992 340.572 252.792C340.116 251.568 339.444 250.512 338.556 249.624C337.692 248.712 336.636 248.016 335.388 247.536C334.164 247.056 332.76 246.816 331.176 246.816H324.624V243.576H330.816C333.192 243.576 335.256 243.948 337.008 244.692C338.76 245.412 340.212 246.396 341.364 247.644C342.54 248.868 343.416 250.248 343.992 251.784C344.568 253.296 344.856 254.844 344.856 256.428V257.22C344.856 258.756 344.568 260.292 343.992 261.828C343.416 263.364 342.54 264.756 341.364 266.004C340.212 267.252 338.76 268.26 337.008 269.028C335.256 269.772 333.192 270.144 330.816 270.144H324.624ZM321.816 270.144V243.576H325.344V270.144H321.816ZM356.521 270.648C354.841 270.648 353.389 270.36 352.165 269.784C350.941 269.208 349.945 268.452 349.177 267.516C348.409 266.556 347.833 265.488 347.449 264.312C347.089 263.136 346.909 261.936 346.909 260.712V260.064C346.909 258.816 347.089 257.604 347.449 256.428C347.833 255.252 348.409 254.196 349.177 253.26C349.945 252.3 350.917 251.544 352.093 250.992C353.293 250.416 354.697 250.128 356.305 250.128C358.393 250.128 360.109 250.584 361.453 251.496C362.821 252.384 363.829 253.536 364.477 254.952C365.149 256.368 365.485 257.88 365.485 259.488V261.036H348.421V258.444H362.965L362.173 259.848C362.173 258.48 361.957 257.304 361.525 256.32C361.093 255.312 360.445 254.532 359.581 253.98C358.717 253.428 357.625 253.152 356.305 253.152C354.937 253.152 353.797 253.464 352.885 254.088C351.997 254.712 351.325 255.564 350.869 256.644C350.437 257.724 350.221 258.972 350.221 260.388C350.221 261.756 350.437 262.992 350.869 264.096C351.325 265.176 352.021 266.04 352.957 266.688C353.893 267.312 355.081 267.624 356.521 267.624C358.033 267.624 359.257 267.288 360.193 266.616C361.153 265.944 361.729 265.164 361.921 264.276H365.161C364.897 265.596 364.369 266.736 363.577 267.696C362.785 268.656 361.789 269.388 360.589 269.892C359.389 270.396 358.033 270.648 356.521 270.648ZM377.124 270.648C375.444 270.648 373.992 270.36 372.768 269.784C371.544 269.208 370.548 268.452 369.78 267.516C369.012 266.556 368.436 265.488 368.052 264.312C367.692 263.136 367.512 261.936 367.512 260.712V260.064C367.512 258.816 367.692 257.604 368.052 256.428C368.436 255.252 369.012 254.196 369.78 253.26C370.548 252.3 371.52 251.544 372.696 250.992C373.896 250.416 375.3 250.128 376.908 250.128C378.996 250.128 380.712 250.584 382.056 251.496C383.424 252.384 384.432 253.536 385.08 254.952C385.752 256.368 386.088 257.88 386.088 259.488V261.036H369.024V258.444H383.568L382.776 259.848C382.776 258.48 382.56 257.304 382.128 256.32C381.696 255.312 381.048 254.532 380.184 253.98C379.32 253.428 378.228 253.152 376.908 253.152C375.54 253.152 374.4 253.464 373.488 254.088C372.6 254.712 371.928 255.564 371.472 256.644C371.04 257.724 370.824 258.972 370.824 260.388C370.824 261.756 371.04 262.992 371.472 264.096C371.928 265.176 372.624 266.04 373.56 266.688C374.496 267.312 375.684 267.624 377.124 267.624C378.636 267.624 379.86 267.288 380.796 266.616C381.756 265.944 382.332 265.164 382.524 264.276H385.764C385.5 265.596 384.972 266.736 384.18 267.696C383.388 268.656 382.392 269.388 381.192 269.892C379.992 270.396 378.636 270.648 377.124 270.648ZM389.555 277.2V250.776H392.291V259.092L391.643 259.02C391.763 256.956 392.195 255.276 392.939 253.98C393.707 252.66 394.703 251.688 395.927 251.064C397.151 250.44 398.483 250.128 399.923 250.128C401.315 250.128 402.575 250.392 403.703 250.92C404.855 251.448 405.839 252.168 406.655 253.08C407.471 253.992 408.095 255.048 408.527 256.248C408.959 257.448 409.175 258.72 409.175 260.064V260.712C409.175 262.056 408.947 263.328 408.491 264.528C408.035 265.728 407.387 266.784 406.547 267.696C405.731 268.608 404.747 269.328 403.595 269.856C402.467 270.384 401.219 270.648 399.851 270.648C398.483 270.648 397.175 270.348 395.927 269.748C394.679 269.148 393.647 268.176 392.831 266.832C392.015 265.488 391.547 263.724 391.427 261.54L393.011 264.42V277.2H389.555ZM399.311 267.624C400.607 267.624 401.735 267.324 402.695 266.724C403.655 266.1 404.399 265.248 404.927 264.168C405.455 263.064 405.719 261.804 405.719 260.388C405.719 258.948 405.455 257.688 404.927 256.608C404.399 255.528 403.655 254.688 402.695 254.088C401.735 253.464 400.607 253.152 399.311 253.152C398.159 253.152 397.091 253.416 396.107 253.944C395.123 254.448 394.331 255.192 393.731 256.176C393.155 257.136 392.867 258.3 392.867 259.668V261.324C392.867 262.644 393.167 263.772 393.767 264.708C394.367 265.644 395.159 266.364 396.143 266.868C397.127 267.372 398.183 267.624 399.311 267.624ZM420.207 277.488C419.319 277.488 418.419 277.452 417.507 277.38C416.619 277.308 415.767 277.212 414.951 277.092V274.176C415.815 274.296 416.715 274.392 417.651 274.464C418.611 274.56 419.511 274.608 420.351 274.608C422.103 274.608 423.495 274.368 424.527 273.888C425.583 273.432 426.339 272.7 426.795 271.692C427.275 270.708 427.515 269.436 427.515 267.876V264.204L428.667 261.468C428.595 263.412 428.187 265.032 427.443 266.328C426.699 267.6 425.727 268.56 424.527 269.208C423.351 269.832 422.043 270.144 420.603 270.144C419.259 270.144 418.023 269.892 416.895 269.388C415.791 268.86 414.831 268.14 414.015 267.228C413.223 266.316 412.599 265.272 412.143 264.096C411.711 262.896 411.495 261.636 411.495 260.316V259.668C411.495 258.324 411.723 257.076 412.179 255.924C412.635 254.748 413.271 253.728 414.087 252.864C414.903 252 415.875 251.328 417.003 250.848C418.155 250.368 419.415 250.128 420.783 250.128C422.391 250.128 423.807 250.476 425.031 251.172C426.255 251.844 427.215 252.84 427.911 254.16C428.631 255.456 429.027 257.052 429.099 258.948L428.091 258.984V250.776H430.827V267.732C430.827 270.036 430.467 271.896 429.747 273.312C429.051 274.752 427.923 275.808 426.363 276.48C424.827 277.152 422.775 277.488 420.207 277.488ZM421.251 266.976C422.403 266.976 423.447 266.724 424.383 266.22C425.343 265.716 426.099 264.996 426.651 264.06C427.227 263.1 427.515 261.96 427.515 260.64V258.984C427.515 257.688 427.215 256.596 426.615 255.708C426.039 254.82 425.283 254.148 424.347 253.692C423.411 253.236 422.391 253.008 421.287 253.008C420.039 253.008 418.935 253.296 417.975 253.872C417.015 254.448 416.271 255.264 415.743 256.32C415.215 257.352 414.951 258.576 414.951 259.992C414.951 261.408 415.215 262.644 415.743 263.7C416.295 264.756 417.039 265.572 417.975 266.148C418.935 266.7 420.027 266.976 421.251 266.976ZM435.788 270V250.776H438.524V258.696H438.38C438.38 255.888 438.992 253.836 440.216 252.54C441.464 251.22 443.324 250.56 445.796 250.56H446.444V253.656H445.22C443.3 253.656 441.824 254.172 440.792 255.204C439.76 256.212 439.244 257.676 439.244 259.596V270H435.788ZM450.049 270V250.776H453.505V270H450.049ZM447.097 253.512V250.776H453.505V253.512H447.097ZM451.021 247.68C450.253 247.68 449.677 247.476 449.293 247.068C448.933 246.66 448.753 246.144 448.753 245.52C448.753 244.896 448.933 244.38 449.293 243.972C449.677 243.564 450.253 243.36 451.021 243.36C451.789 243.36 452.353 243.564 452.713 243.972C453.097 244.38 453.289 244.896 453.289 245.52C453.289 246.144 453.097 246.66 452.713 247.068C452.353 247.476 451.789 247.68 451.021 247.68ZM466.776 270.648C465.408 270.648 464.148 270.396 462.996 269.892C461.844 269.388 460.836 268.68 459.972 267.768C459.132 266.856 458.472 265.8 457.992 264.6C457.536 263.4 457.308 262.104 457.308 260.712V260.064C457.308 258.696 457.536 257.412 457.992 256.212C458.448 255.012 459.084 253.956 459.9 253.044C460.74 252.132 461.724 251.424 462.852 250.92C464.004 250.392 465.276 250.128 466.668 250.128C468.132 250.128 469.464 250.44 470.664 251.064C471.864 251.664 472.848 252.612 473.616 253.908C474.384 255.204 474.816 256.884 474.912 258.948L473.472 256.644V243.72H476.928V270H474.192V261.468H475.2C475.104 263.652 474.648 265.428 473.832 266.796C473.016 268.14 471.984 269.124 470.736 269.748C469.512 270.348 468.192 270.648 466.776 270.648ZM467.244 267.624C468.42 267.624 469.488 267.36 470.448 266.832C471.408 266.304 472.176 265.548 472.752 264.564C473.328 263.556 473.616 262.38 473.616 261.036V259.38C473.616 258.06 473.316 256.944 472.716 256.032C472.14 255.096 471.36 254.388 470.376 253.908C469.416 253.404 468.36 253.152 467.208 253.152C465.936 253.152 464.808 253.452 463.824 254.052C462.864 254.652 462.108 255.492 461.556 256.572C461.028 257.652 460.764 258.924 460.764 260.388C460.764 261.852 461.04 263.136 461.592 264.24C462.144 265.32 462.912 266.16 463.896 266.76C464.88 267.336 465.996 267.624 467.244 267.624ZM488.428 270.576C485.908 270.576 483.952 270.036 482.56 268.956C481.192 267.876 480.484 266.4 480.436 264.528H483.676C483.724 265.272 484.096 265.98 484.792 266.652C485.512 267.3 486.724 267.624 488.428 267.624C489.964 267.624 491.14 267.324 491.956 266.724C492.772 266.1 493.18 265.344 493.18 264.456C493.18 263.664 492.88 263.052 492.28 262.62C491.68 262.164 490.708 261.864 489.364 261.72L487.276 261.504C485.452 261.312 483.964 260.772 482.812 259.884C481.66 258.972 481.084 257.7 481.084 256.068C481.084 254.844 481.396 253.8 482.02 252.936C482.644 252.048 483.508 251.376 484.612 250.92C485.716 250.44 486.988 250.2 488.428 250.2C490.588 250.2 492.34 250.68 493.684 251.64C495.028 252.6 495.724 254.028 495.772 255.924H492.532C492.508 255.156 492.148 254.508 491.452 253.98C490.78 253.428 489.772 253.152 488.428 253.152C487.084 253.152 486.064 253.428 485.368 253.98C484.672 254.532 484.324 255.228 484.324 256.068C484.324 256.788 484.564 257.364 485.044 257.796C485.548 258.228 486.364 258.504 487.492 258.624L489.58 258.84C491.644 259.056 493.3 259.632 494.548 260.568C495.796 261.48 496.42 262.776 496.42 264.456C496.42 265.656 496.072 266.724 495.376 267.66C494.704 268.572 493.768 269.292 492.568 269.82C491.368 270.324 489.988 270.576 488.428 270.576Z" fill="white"/>
<path d="M285.644 263.762C286.264 263.097 287.379 263.538 287.375 264.448L287.335 274C287.332 274.552 286.883 274.998 286.33 274.996L276.672 274.955C275.776 274.951 275.337 273.863 275.979 273.238L284.917 264.541L285.644 263.762Z" fill="white"/>
<path d="M273.742 271.262C273.121 271.927 272.007 271.485 272.011 270.576L272.051 261.024C272.053 260.472 272.503 260.026 273.055 260.028L282.714 260.069C283.609 260.073 284.049 261.161 283.407 261.786L274.468 270.483L273.742 271.262Z" fill="white"/>
<path d="M302.845 245.74C303.466 245.075 304.58 245.516 304.576 246.426L304.536 255.978C304.533 256.53 304.084 256.976 303.532 256.974L293.873 256.933C292.978 256.929 292.538 255.841 293.18 255.216L302.118 246.519L302.845 245.74Z" fill="white"/>
<path d="M290.945 253.24C290.325 253.905 289.21 253.463 289.214 252.553L289.254 243.002C289.257 242.449 289.706 242.004 290.258 242.006L299.917 242.047C300.812 242.05 301.252 243.139 300.61 243.763L291.672 252.461L290.945 253.24Z" fill="white"/>
<path d="M283.237 255.629C283.904 256.248 283.463 257.363 282.554 257.361L273.002 257.335C272.45 257.333 272.003 256.884 272.005 256.332L272.031 246.674C272.033 245.778 273.121 245.337 273.747 245.978L282.458 254.903L283.237 255.629Z" fill="white"/>
<path d="M275.719 243.739C275.052 243.12 275.493 242.004 276.402 242.007L285.954 242.033C286.506 242.034 286.953 242.483 286.951 243.035L286.925 252.694C286.923 253.59 285.835 254.031 285.21 253.39L276.498 244.464L275.719 243.739Z" fill="white"/>
<path d="M300.875 273.225C301.545 273.841 301.111 274.959 300.201 274.961L290.649 274.987C290.097 274.989 289.648 274.542 289.647 273.99L289.62 264.331C289.618 263.436 290.703 262.989 291.332 263.626L300.092 272.504L300.875 273.225Z" fill="white"/>
<path d="M293.292 261.377C292.623 260.761 293.057 259.644 293.967 259.641L303.518 259.616C304.071 259.614 304.52 260.061 304.521 260.613L304.547 270.271C304.55 271.167 303.465 271.614 302.836 270.976L294.076 262.098L293.292 261.377Z" fill="white"/>
</g>
<defs>
<filter id="filter0_n_469_217" x="12.2002" y="450.939" width="203.378" height="104.735" filterUnits="userSpaceOnUse" color-interpolation-filters="sRGB">
<feFlood flood-opacity="0" result="BackgroundImageFix"/>
<feBlend mode="normal" in="SourceGraphic" in2="BackgroundImageFix" result="shape"/>
<feTurbulence type="fractalNoise" baseFrequency="2 2" stitchTiles="stitch" numOctaves="3" result="noise" seed="7808" />
<feColorMatrix in="noise" type="luminanceToAlpha" result="alphaNoise" />
<feComponentTransfer in="alphaNoise" result="coloredNoise1">
<feFuncA type="discrete" tableValues="1 1 1 1 1 1 1 1 1 1 1 1 1 1 1 1 1 1 1 1 1 1 1 1 1 1 1 1 1 1 1 1 1 1 1 1 1 1 1 1 1 1 1 1 1 1 1 1 1 1 1 0 0 0 0 0 0 0 0 0 0 0 0 0 0 0 0 0 0 0 0 0 0 0 0 0 0 0 0 0 0 0 0 0 0 0 0 0 0 0 0 0 0 0 0 0 0 0 0 0 "/>
</feComponentTransfer>
<feComposite operator="in" in2="shape" in="coloredNoise1" result="noise1Clipped" />
<feFlood flood-color="rgba(0, 0, 0, 0.25)" result="color1Flood" />
<feComposite operator="in" in2="noise1Clipped" in="color1Flood" result="color1" />
<feMerge result="effect1_noise_469_217">
<feMergeNode in="shape" />
<feMergeNode in="color1" />
</feMerge>
</filter>
<filter id="filter1_n_469_217" x="-40.124" y="317.853" width="127.882" height="237.963" filterUnits="userSpaceOnUse" color-interpolation-filters="sRGB">
<feFlood flood-opacity="0" result="BackgroundImageFix"/>
<feBlend mode="normal" in="SourceGraphic" in2="BackgroundImageFix" result="shape"/>
<feTurbulence type="fractalNoise" baseFrequency="2 2" stitchTiles="stitch" numOctaves="3" result="noise" seed="7808" />
<feColorMatrix in="noise" type="luminanceToAlpha" result="alphaNoise" />
<feComponentTransfer in="alphaNoise" result="coloredNoise1">
<feFuncA type="discrete" tableValues="1 1 1 1 1 1 1 1 1 1 1 1 1 1 1 1 1 1 1 1 1 1 1 1 1 1 1 1 1 1 1 1 1 1 1 1 1 1 1 1 1 1 1 1 1 1 1 1 1 1 1 0 0 0 0 0 0 0 0 0 0 0 0 0 0 0 0 0 0 0 0 0 0 0 0 0 0 0 0 0 0 0 0 0 0 0 0 0 0 0 0 0 0 0 0 0 0 0 0 0 "/>
</feComponentTransfer>
<feComposite operator="in" in2="shape" in="coloredNoise1" result="noise1Clipped" />
<feFlood flood-color="rgba(0, 0, 0, 0.25)" result="color1Flood" />
<feComposite operator="in" in2="noise1Clipped" in="color1Flood" result="color1" />
<feMerge result="effect1_noise_469_217">
<feMergeNode in="shape" />
<feMergeNode in="color1" />
</feMerge>
</filter>
<filter id="filter2_n_469_217" x="29.5957" y="317.847" width="186.05" height="144.896" filterUnits="userSpaceOnUse" color-interpolation-filters="sRGB">
<feFlood flood-opacity="0" result="BackgroundImageFix"/>
<feBlend mode="normal" in="SourceGraphic" in2="BackgroundImageFix" result="shape"/>
<feTurbulence type="fractalNoise" baseFrequency="2 2" stitchTiles="stitch" numOctaves="3" result="noise" seed="1268" />
<feColorMatrix in="noise" type="luminanceToAlpha" result="alphaNoise" />
<feComponentTransfer in="alphaNoise" result="coloredNoise1">
<feFuncA type="discrete" tableValues="1 1 1 1 1 1 1 1 1 1 1 1 1 1 1 1 1 1 1 1 1 1 1 1 1 1 1 1 1 1 1 1 1 1 1 1 1 1 1 1 1 1 1 1 1 1 1 1 1 1 1 0 0 0 0 0 0 0 0 0 0 0 0 0 0 0 0 0 0 0 0 0 0 0 0 0 0 0 0 0 0 0 0 0 0 0 0 0 0 0 0 0 0 0 0 0 0 0 0 0 "/>
</feComponentTransfer>
<feComposite operator="in" in2="shape" in="coloredNoise1" result="noise1Clipped" />
<feFlood flood-color="rgba(0, 0, 0, 0.25)" result="color1Flood" />
<feComposite operator="in" in2="noise1Clipped" in="color1Flood" result="color1" />
<feMerge result="effect1_noise_469_217">
<feMergeNode in="shape" />
<feMergeNode in="color1" />
</feMerge>
</filter>
<radialGradient id="paint0_radial_469_217" cx="0" cy="0" r="1" gradientUnits="userSpaceOnUse" gradientTransform="translate(385 257.5) rotate(90) scale(257.5 385)">
<stop stop-color="#393939"/>
<stop offset="1"/>
</radialGradient>
<clipPath id="clip0_469_217">
<rect width="770" height="515" fill="white"/>
</clipPath>
</defs>
</svg>
